<svg width="618" height="141" viewBox="0 0 618 141" fill="none" xmlns="http://www.w3.org/2000/svg">
<path d="M314.18 21V7H326.24V21H324.28V8.22L324.76 8.74H315.66L316.16 8.22V21H314.18ZM335.906 21.12C335.026 21.12 334.219 20.92 333.486 20.52C332.766 20.1067 332.186 19.5 331.746 18.7C331.319 17.9 331.106 16.9 331.106 15.7C331.106 14.5 331.312 13.5 331.726 12.7C332.152 11.9 332.726 11.3 333.446 10.9C334.179 10.5 334.999 10.3 335.906 10.3C336.946 10.3 337.866 10.5267 338.666 10.98C339.466 11.4333 340.099 12.0667 340.566 12.88C341.032 13.68 341.266 14.62 341.266 15.7C341.266 16.78 341.032 17.7267 340.566 18.54C340.099 19.3533 339.466 19.9867 338.666 20.44C337.866 20.8933 336.946 21.12 335.906 21.12ZM330.286 24.88V10.4H332.126V13.26L332.006 15.72L332.206 18.18V24.88H330.286ZM335.746 19.44C336.426 19.44 337.032 19.2867 337.566 18.98C338.112 18.6733 338.539 18.24 338.846 17.68C339.166 17.1067 339.326 16.4467 339.326 15.7C339.326 14.94 339.166 14.2867 338.846 13.74C338.539 13.18 338.112 12.7467 337.566 12.44C337.032 12.1333 336.426 11.98 335.746 11.98C335.079 11.98 334.472 12.1333 333.926 12.44C333.392 12.7467 332.966 13.18 332.646 13.74C332.339 14.2867 332.186 14.94 332.186 15.7C332.186 16.4467 332.339 17.1067 332.646 17.68C332.966 18.24 333.392 18.6733 333.926 18.98C334.472 19.2867 335.079 19.44 335.746 19.44ZM348.595 21.12C347.529 21.12 346.582 20.8867 345.755 20.42C344.929 19.9533 344.275 19.3133 343.795 18.5C343.315 17.6733 343.075 16.74 343.075 15.7C343.075 14.6467 343.315 13.7133 343.795 12.9C344.275 12.0867 344.929 11.4533 345.755 11C346.582 10.5333 347.529 10.3 348.595 10.3C349.649 10.3 350.589 10.5333 351.415 11C352.255 11.4533 352.909 12.0867 353.375 12.9C353.855 13.7 354.095 14.6333 354.095 15.7C354.095 16.7533 353.855 17.6867 353.375 18.5C352.909 19.3133 352.255 19.9533 351.415 20.42C350.589 20.8867 349.649 21.12 348.595 21.12ZM348.595 19.44C349.275 19.44 349.882 19.2867 350.415 18.98C350.962 18.6733 351.389 18.24 351.695 17.68C352.002 17.1067 352.155 16.4467 352.155 15.7C352.155 14.94 352.002 14.2867 351.695 13.74C351.389 13.18 350.962 12.7467 350.415 12.44C349.882 12.1333 349.275 11.98 348.595 11.98C347.915 11.98 347.309 12.1333 346.775 12.44C346.242 12.7467 345.815 13.18 345.495 13.74C345.175 14.2867 345.015 14.94 345.015 15.7C345.015 16.4467 345.175 17.1067 345.495 17.68C345.815 18.24 346.242 18.6733 346.775 18.98C347.309 19.2867 347.915 19.44 348.595 19.44ZM356.868 21V10.4H358.848L363.408 18.24H362.608L367.288 10.4H369.088V21H367.348V12.56L367.668 12.74L363.388 19.8H362.548L358.248 12.6L358.628 12.52V21H356.868ZM377.365 21.12C376.298 21.12 375.352 20.8867 374.525 20.42C373.698 19.9533 373.045 19.3133 372.565 18.5C372.085 17.6733 371.845 16.74 371.845 15.7C371.845 14.6467 372.085 13.7133 372.565 12.9C373.045 12.0867 373.698 11.4533 374.525 11C375.352 10.5333 376.298 10.3 377.365 10.3C378.418 10.3 379.358 10.5333 380.185 11C381.025 11.4533 381.678 12.0867 382.145 12.9C382.625 13.7 382.865 14.6333 382.865 15.7C382.865 16.7533 382.625 17.6867 382.145 18.5C381.678 19.3133 381.025 19.9533 380.185 20.42C379.358 20.8867 378.418 21.12 377.365 21.12ZM377.365 19.44C378.045 19.44 378.652 19.2867 379.185 18.98C379.732 18.6733 380.158 18.24 380.465 17.68C380.772 17.1067 380.925 16.4467 380.925 15.7C380.925 14.94 380.772 14.2867 380.465 13.74C380.158 13.18 379.732 12.7467 379.185 12.44C378.652 12.1333 378.045 11.98 377.365 11.98C376.685 11.98 376.078 12.1333 375.545 12.44C375.012 12.7467 374.585 13.18 374.265 13.74C373.945 14.2867 373.785 14.94 373.785 15.7C373.785 16.4467 373.945 17.1067 374.265 17.68C374.585 18.24 375.012 18.6733 375.545 18.98C376.078 19.2867 376.685 19.44 377.365 19.44ZM393.317 21L389.217 15.84L390.797 14.88L395.577 21H393.317ZM385.637 21V10.4H387.557V21H385.637ZM386.977 16.52V14.88H390.477V16.52H386.977ZM390.957 15.92L389.177 15.68L393.237 10.4H395.297L390.957 15.92ZM401.779 21.12C400.712 21.12 399.766 20.8867 398.939 20.42C398.112 19.9533 397.459 19.3133 396.979 18.5C396.499 17.6733 396.259 16.74 396.259 15.7C396.259 14.6467 396.499 13.7133 396.979 12.9C397.459 12.0867 398.112 11.4533 398.939 11C399.766 10.5333 400.712 10.3 401.779 10.3C402.832 10.3 403.772 10.5333 404.599 11C405.439 11.4533 406.092 12.0867 406.559 12.9C407.039 13.7 407.279 14.6333 407.279 15.7C407.279 16.7533 407.039 17.6867 406.559 18.5C406.092 19.3133 405.439 19.9533 404.599 20.42C403.772 20.8867 402.832 21.12 401.779 21.12ZM401.779 19.44C402.459 19.44 403.066 19.2867 403.599 18.98C404.146 18.6733 404.572 18.24 404.879 17.68C405.186 17.1067 405.339 16.4467 405.339 15.7C405.339 14.94 405.186 14.2867 404.879 13.74C404.572 13.18 404.146 12.7467 403.599 12.44C403.066 12.1333 402.459 11.98 401.779 11.98C401.099 11.98 400.492 12.1333 399.959 12.44C399.426 12.7467 398.999 13.18 398.679 13.74C398.359 14.2867 398.199 14.94 398.199 15.7C398.199 16.4467 398.359 17.1067 398.679 17.68C398.999 18.24 399.426 18.6733 399.959 18.98C400.492 19.2867 401.099 19.44 401.779 19.44ZM417.213 20.1V12.08H412.613L412.513 14.12C412.487 14.7867 412.44 15.4333 412.373 16.06C412.32 16.6733 412.227 17.24 412.093 17.76C411.973 18.28 411.793 18.7067 411.553 19.04C411.313 19.3733 410.993 19.58 410.593 19.66L408.693 19.32C409.107 19.3333 409.44 19.2 409.693 18.92C409.947 18.6267 410.14 18.2267 410.273 17.72C410.42 17.2133 410.527 16.64 410.593 16C410.66 15.3467 410.713 14.6733 410.753 13.98L410.913 10.4H419.133V20.1H417.213ZM408.273 23.46V19.32H420.753V23.46H418.953V21H410.093V23.46H408.273ZM433.735 21V10.4H435.655V21H433.735ZM428.035 14C429.381 14.0133 430.401 14.32 431.095 14.92C431.801 15.52 432.155 16.3667 432.155 17.46C432.155 18.6067 431.768 19.4933 430.995 20.12C430.235 20.7333 429.141 21.0333 427.715 21.02L423.255 21V10.4H425.175V13.98L428.035 14ZM427.575 19.56C428.428 19.5733 429.081 19.4 429.535 19.04C429.988 18.68 430.215 18.1467 430.215 17.44C430.215 16.7467 429.988 16.24 429.535 15.92C429.095 15.6 428.441 15.4333 427.575 15.42L425.175 15.38V19.54L427.575 19.56ZM320.44 78.16C319.373 78.16 318.387 77.9867 317.48 77.64C316.587 77.28 315.807 76.78 315.14 76.14C314.487 75.4867 313.973 74.7267 313.6 73.86C313.227 72.9933 313.04 72.04 313.04 71C313.04 69.96 313.227 69.0067 313.6 68.14C313.973 67.2733 314.493 66.52 315.16 65.88C315.827 65.2267 316.607 64.7267 317.5 64.38C318.407 64.02 319.393 63.84 320.46 63.84C321.54 63.84 322.533 64.0267 323.44 64.4C324.36 64.76 325.14 65.3 325.78 66.02L324.48 67.28C323.947 66.72 323.347 66.3067 322.68 66.04C322.013 65.76 321.3 65.62 320.54 65.62C319.753 65.62 319.02 65.7533 318.34 66.02C317.673 66.2867 317.093 66.66 316.6 67.14C316.107 67.62 315.72 68.1933 315.44 68.86C315.173 69.5133 315.04 70.2267 315.04 71C315.04 71.7733 315.173 72.4933 315.44 73.16C315.72 73.8133 316.107 74.38 316.6 74.86C317.093 75.34 317.673 75.7133 318.34 75.98C319.02 76.2467 319.753 76.38 320.54 76.38C321.3 76.38 322.013 76.2467 322.68 75.98C323.347 75.7 323.947 75.2733 324.48 74.7L325.78 75.96C325.14 76.68 324.36 77.2267 323.44 77.6C322.533 77.9733 321.533 78.16 320.44 78.16ZM335.895 78L331.795 72.84L333.375 71.88L338.155 78H335.895ZM328.215 78V67.4H330.135V78H328.215ZM329.555 73.52V71.88H333.055V73.52H329.555ZM333.535 72.92L331.755 72.68L335.815 67.4H337.875L333.535 72.92ZM340.169 78V67.4H342.089V75.12L348.589 67.4H350.329V78H348.409V70.28L341.929 78H340.169ZM361.295 77.1V69.08H356.695L356.595 71.12C356.569 71.7867 356.522 72.4333 356.455 73.06C356.402 73.6733 356.309 74.24 356.175 74.76C356.055 75.28 355.875 75.7067 355.635 76.04C355.395 76.3733 355.075 76.58 354.675 76.66L352.775 76.32C353.189 76.3333 353.522 76.2 353.775 75.92C354.029 75.6267 354.222 75.2267 354.355 74.72C354.502 74.2133 354.609 73.64 354.675 73C354.742 72.3467 354.795 71.6733 354.835 70.98L354.995 67.4H363.215V77.1H361.295ZM352.355 80.46V76.32H364.835V80.46H363.035V78H354.175V80.46H352.355ZM375.017 78L370.917 72.84L372.497 71.88L377.277 78H375.017ZM367.337 78V67.4H369.257V78H367.337ZM368.677 73.52V71.88H372.177V73.52H368.677ZM372.657 72.92L370.877 72.68L374.937 67.4H376.997L372.657 72.92ZM379.29 78V67.4H381.21V75.12L387.71 67.4H389.45V78H387.53V70.28L381.05 78H379.29ZM314.18 135V121H326.24V135H324.28V122.22L324.76 122.74H315.66L316.16 122.22V135H314.18ZM334.826 135.12C333.759 135.12 332.812 134.887 331.986 134.42C331.159 133.953 330.506 133.313 330.026 132.5C329.546 131.673 329.306 130.74 329.306 129.7C329.306 128.647 329.546 127.713 330.026 126.9C330.506 126.087 331.159 125.453 331.986 125C332.812 124.533 333.759 124.3 334.826 124.3C335.879 124.3 336.819 124.533 337.646 125C338.486 125.453 339.139 126.087 339.606 126.9C340.086 127.7 340.326 128.633 340.326 129.7C340.326 130.753 340.086 131.687 339.606 132.5C339.139 133.313 338.486 133.953 337.646 134.42C336.819 134.887 335.879 135.12 334.826 135.12ZM334.826 133.44C335.506 133.44 336.112 133.287 336.646 132.98C337.192 132.673 337.619 132.24 337.926 131.68C338.232 131.107 338.386 130.447 338.386 129.7C338.386 128.94 338.232 128.287 337.926 127.74C337.619 127.18 337.192 126.747 336.646 126.44C336.112 126.133 335.506 125.98 334.826 125.98C334.146 125.98 333.539 126.133 333.006 126.44C332.472 126.747 332.046 127.18 331.726 127.74C331.406 128.287 331.246 128.94 331.246 129.7C331.246 130.447 331.406 131.107 331.726 131.68C332.046 132.24 332.472 132.673 333.006 132.98C333.539 133.287 334.146 133.44 334.826 133.44ZM343.098 135V124.4H345.078L349.638 132.24H348.838L353.518 124.4H355.318V135H353.578V126.56L353.898 126.74L349.618 133.8H348.778L344.478 126.6L344.858 126.52V135H343.098ZM363.595 135.12C362.529 135.12 361.582 134.887 360.755 134.42C359.929 133.953 359.275 133.313 358.795 132.5C358.315 131.673 358.075 130.74 358.075 129.7C358.075 128.647 358.315 127.713 358.795 126.9C359.275 126.087 359.929 125.453 360.755 125C361.582 124.533 362.529 124.3 363.595 124.3C364.649 124.3 365.589 124.533 366.415 125C367.255 125.453 367.909 126.087 368.375 126.9C368.855 127.7 369.095 128.633 369.095 129.7C369.095 130.753 368.855 131.687 368.375 132.5C367.909 133.313 367.255 133.953 366.415 134.42C365.589 134.887 364.649 135.12 363.595 135.12ZM363.595 133.44C364.275 133.44 364.882 133.287 365.415 132.98C365.962 132.673 366.389 132.24 366.695 131.68C367.002 131.107 367.155 130.447 367.155 129.7C367.155 128.94 367.002 128.287 366.695 127.74C366.389 127.18 365.962 126.747 365.415 126.44C364.882 126.133 364.275 125.98 363.595 125.98C362.915 125.98 362.309 126.133 361.775 126.44C361.242 126.747 360.815 127.18 360.495 127.74C360.175 128.287 360.015 128.94 360.015 129.7C360.015 130.447 360.175 131.107 360.495 131.68C360.815 132.24 361.242 132.673 361.775 132.98C362.309 133.287 362.915 133.44 363.595 133.44ZM378.908 133.32L378.468 133.82V124.4H380.388V133.82L379.908 133.32H385.508L385.048 133.82V124.4H386.968V135H371.868V124.4H373.788V133.82L373.328 133.32H378.908ZM386.728 137.26V134.5L387.188 135H384.948V133.32H388.528V137.26H386.728ZM395.596 128C396.943 128.013 397.969 128.32 398.676 128.92C399.383 129.52 399.736 130.367 399.736 131.46C399.736 132.607 399.349 133.493 398.576 134.12C397.803 134.733 396.709 135.033 395.296 135.02L390.696 135V124.4H392.616V127.98L395.596 128ZM395.136 133.56C396.003 133.573 396.656 133.4 397.096 133.04C397.549 132.68 397.776 132.147 397.776 131.44C397.776 130.747 397.556 130.24 397.116 129.92C396.676 129.6 396.016 129.433 395.136 129.42L392.616 129.38V133.54L395.136 133.56Z" fill="#E9ECF1"/>
<path d="M526.48 21.16C525.413 21.16 524.42 20.98 523.5 20.62C522.593 20.26 521.807 19.76 521.14 19.12C520.473 18.4667 519.953 17.7067 519.58 16.84C519.207 15.9733 519.02 15.0267 519.02 14C519.02 12.9733 519.207 12.0267 519.58 11.16C519.953 10.2933 520.473 9.54 521.14 8.9C521.807 8.24667 522.593 7.74 523.5 7.38C524.407 7.02 525.4 6.84 526.48 6.84C527.547 6.84 528.527 7.02 529.42 7.38C530.327 7.72667 531.113 8.22667 531.78 8.88C532.46 9.52 532.98 10.2733 533.34 11.14C533.713 12.0067 533.9 12.96 533.9 14C533.9 15.04 533.713 15.9933 533.34 16.86C532.98 17.7267 532.46 18.4867 531.78 19.14C531.113 19.78 530.327 20.28 529.42 20.64C528.527 20.9867 527.547 21.16 526.48 21.16ZM526.48 19.38C527.253 19.38 527.967 19.2467 528.62 18.98C529.287 18.7133 529.86 18.34 530.34 17.86C530.833 17.3667 531.213 16.7933 531.48 16.14C531.76 15.4867 531.9 14.7733 531.9 14C531.9 13.2267 531.76 12.5133 531.48 11.86C531.213 11.2067 530.833 10.64 530.34 10.16C529.86 9.66667 529.287 9.28667 528.62 9.02C527.967 8.75333 527.253 8.62 526.48 8.62C525.693 8.62 524.967 8.75333 524.3 9.02C523.647 9.28667 523.073 9.66667 522.58 10.16C522.087 10.64 521.7 11.2067 521.42 11.86C521.153 12.5133 521.02 13.2267 521.02 14C521.02 14.7733 521.153 15.4867 521.42 16.14C521.7 16.7933 522.087 17.3667 522.58 17.86C523.073 18.34 523.647 18.7133 524.3 18.98C524.967 19.2467 525.693 19.38 526.48 19.38ZM542.184 21V10.4H544.104V14.9H550.144V10.4H552.064V21H550.144V16.56H544.104V21H542.184ZM562.298 21V18.76L562.198 18.34V14.52C562.198 13.7067 561.958 13.08 561.478 12.64C561.011 12.1867 560.304 11.96 559.358 11.96C558.731 11.96 558.118 12.0667 557.518 12.28C556.918 12.48 556.411 12.7533 555.998 13.1L555.198 11.66C555.744 11.22 556.398 10.8867 557.158 10.66C557.931 10.42 558.738 10.3 559.578 10.3C561.031 10.3 562.151 10.6533 562.938 11.36C563.724 12.0667 564.118 13.1467 564.118 14.6V21H562.298ZM558.818 21.12C558.031 21.12 557.338 20.9867 556.738 20.72C556.151 20.4533 555.698 20.0867 555.378 19.62C555.058 19.14 554.898 18.6 554.898 18C554.898 17.4267 555.031 16.9067 555.298 16.44C555.578 15.9733 556.024 15.6 556.638 15.32C557.264 15.04 558.104 14.9 559.158 14.9H562.518V16.28H559.238C558.278 16.28 557.631 16.44 557.298 16.76C556.964 17.08 556.798 17.4667 556.798 17.92C556.798 18.44 557.004 18.86 557.418 19.18C557.831 19.4867 558.404 19.64 559.138 19.64C559.858 19.64 560.484 19.48 561.018 19.16C561.564 18.84 561.958 18.3733 562.198 17.76L562.578 19.08C562.324 19.7067 561.878 20.2067 561.238 20.58C560.598 20.94 559.791 21.12 558.818 21.12ZM572.195 21.12C571.115 21.12 570.148 20.8867 569.295 20.42C568.455 19.9533 567.795 19.3133 567.315 18.5C566.835 17.6867 566.595 16.7533 566.595 15.7C566.595 14.6467 566.835 13.7133 567.315 12.9C567.795 12.0867 568.455 11.4533 569.295 11C570.148 10.5333 571.115 10.3 572.195 10.3C573.155 10.3 574.008 10.4933 574.755 10.88C575.515 11.2533 576.102 11.8133 576.515 12.56L575.055 13.5C574.708 12.98 574.282 12.6 573.775 12.36C573.282 12.1067 572.748 11.98 572.175 11.98C571.482 11.98 570.862 12.1333 570.315 12.44C569.768 12.7467 569.335 13.18 569.015 13.74C568.695 14.2867 568.535 14.94 568.535 15.7C568.535 16.46 568.695 17.12 569.015 17.68C569.335 18.24 569.768 18.6733 570.315 18.98C570.862 19.2867 571.482 19.44 572.175 19.44C572.748 19.44 573.282 19.32 573.775 19.08C574.282 18.8267 574.708 18.44 575.055 17.92L576.515 18.84C576.102 19.5733 575.515 20.14 574.755 20.54C574.008 20.9267 573.155 21.12 572.195 21.12ZM529.6 78L524.52 71.1L526.14 70.1L531.88 78H529.6ZM520.18 78V64H522.14V78H520.18ZM521.54 71.84V70.08H526.08V71.84H521.54ZM526.32 71.22L524.48 70.94L529.5 64H531.64L526.32 71.22ZM538.013 78.12C536.947 78.12 536 77.8867 535.173 77.42C534.347 76.9533 533.693 76.3133 533.213 75.5C532.733 74.6733 532.493 73.74 532.493 72.7C532.493 71.6467 532.733 70.7133 533.213 69.9C533.693 69.0867 534.347 68.4533 535.173 68C536 67.5333 536.947 67.3 538.013 67.3C539.067 67.3 540.007 67.5333 540.833 68C541.673 68.4533 542.327 69.0867 542.793 69.9C543.273 70.7 543.513 71.6333 543.513 72.7C543.513 73.7533 543.273 74.6867 542.793 75.5C542.327 76.3133 541.673 76.9533 540.833 77.42C540.007 77.8867 539.067 78.12 538.013 78.12ZM538.013 76.44C538.693 76.44 539.3 76.2867 539.833 75.98C540.38 75.6733 540.807 75.24 541.113 74.68C541.42 74.1067 541.573 73.4467 541.573 72.7C541.573 71.94 541.42 71.2867 541.113 70.74C540.807 70.18 540.38 69.7467 539.833 69.44C539.3 69.1333 538.693 68.98 538.013 68.98C537.333 68.98 536.727 69.1333 536.193 69.44C535.66 69.7467 535.233 70.18 534.913 70.74C534.593 71.2867 534.433 71.94 534.433 72.7C534.433 73.4467 534.593 74.1067 534.913 74.68C535.233 75.24 535.66 75.6733 536.193 75.98C536.727 76.2867 537.333 76.44 538.013 76.44ZM546.286 78V67.4H548.206V71.9H554.246V67.4H556.166V78H554.246V73.56H548.206V78H546.286ZM561.999 78V68.58L562.479 69.08H558.119V67.4H567.799V69.08H563.459L563.919 68.58V78H561.999ZM576.262 78V75.76L576.162 75.34V71.52C576.162 70.7067 575.922 70.08 575.442 69.64C574.976 69.1867 574.269 68.96 573.322 68.96C572.696 68.96 572.082 69.0667 571.482 69.28C570.882 69.48 570.376 69.7533 569.962 70.1L569.162 68.66C569.709 68.22 570.362 67.8867 571.122 67.66C571.896 67.42 572.702 67.3 573.542 67.3C574.996 67.3 576.116 67.6533 576.902 68.36C577.689 69.0667 578.082 70.1467 578.082 71.6V78H576.262ZM572.782 78.12C571.996 78.12 571.302 77.9867 570.702 77.72C570.116 77.4533 569.662 77.0867 569.342 76.62C569.022 76.14 568.862 75.6 568.862 75C568.862 74.4267 568.996 73.9067 569.262 73.44C569.542 72.9733 569.989 72.6 570.602 72.32C571.229 72.04 572.069 71.9 573.122 71.9H576.482V73.28H573.202C572.242 73.28 571.596 73.44 571.262 73.76C570.929 74.08 570.762 74.4667 570.762 74.92C570.762 75.44 570.969 75.86 571.382 76.18C571.796 76.4867 572.369 76.64 573.102 76.64C573.822 76.64 574.449 76.48 574.982 76.16C575.529 75.84 575.922 75.3733 576.162 74.76L576.542 76.08C576.289 76.7067 575.842 77.2067 575.202 77.58C574.562 77.94 573.756 78.12 572.782 78.12ZM589.22 78L585.12 72.84L586.7 71.88L591.48 78H589.22ZM581.54 78V67.4H583.46V78H581.54ZM582.88 73.52V71.88H586.38V73.52H582.88ZM586.86 72.92L585.08 72.68L589.14 67.4H591.2L586.86 72.92ZM595.417 78V68.58L595.897 69.08H591.537V67.4H601.217V69.08H596.877L597.337 68.58V78H595.417ZM613.66 78V67.4H615.58V78H613.66ZM607.96 71C609.307 71.0133 610.327 71.32 611.02 71.92C611.727 72.52 612.08 73.3667 612.08 74.46C612.08 75.6067 611.694 76.4933 610.92 77.12C610.16 77.7333 609.067 78.0333 607.64 78.02L603.18 78V67.4H605.1V70.98L607.96 71ZM607.5 76.56C608.354 76.5733 609.007 76.4 609.46 76.04C609.914 75.68 610.14 75.1467 610.14 74.44C610.14 73.7467 609.914 73.24 609.46 72.92C609.02 72.6 608.367 72.4333 607.5 72.42L605.1 72.38V76.54L607.5 76.56Z" fill="#E9ECF1"/>
<path d="M35.196 51.928V51.2H41.118V51.928H38.542V61H37.772V51.928H35.196ZM45.3819 57.71L45.6339 56.982H50.1559L50.4079 57.71H45.3819ZM47.8739 52.6L45.9699 57.234L45.8859 57.402L44.4159 61H43.5479L47.8739 50.822L52.1999 61H51.3319L49.8759 57.458L49.8059 57.276L47.8739 52.6ZM55.0339 51.928V51.2H60.9559V51.928H58.3799V61H57.6099V51.928H55.0339ZM65.2741 51.928V51.2H71.1961V51.928H68.6201V61H67.8501V51.928H65.2741ZM75.6253 56.1C75.6253 56.912 75.7979 57.64 76.1433 58.284C76.4979 58.928 76.9786 59.4367 77.5853 59.81C78.2013 60.174 78.9013 60.356 79.6853 60.356C80.4693 60.356 81.1646 60.174 81.7713 59.81C82.3873 59.4367 82.8679 58.928 83.2133 58.284C83.5586 57.64 83.7313 56.912 83.7313 56.1C83.7313 55.2787 83.5586 54.5507 83.2133 53.916C82.8679 53.272 82.3873 52.768 81.7713 52.404C81.1646 52.0307 80.4693 51.844 79.6853 51.844C78.9013 51.844 78.2013 52.0307 77.5853 52.404C76.9786 52.768 76.4979 53.272 76.1433 53.916C75.7979 54.5507 75.6253 55.2787 75.6253 56.1ZM74.8133 56.1C74.8133 55.3813 74.9346 54.7187 75.1773 54.112C75.4199 53.496 75.7606 52.964 76.1993 52.516C76.6379 52.0587 77.1513 51.704 77.7393 51.452C78.3366 51.2 78.9853 51.074 79.6853 51.074C80.3853 51.074 81.0293 51.2 81.6173 51.452C82.2146 51.704 82.7326 52.0587 83.1713 52.516C83.6099 52.964 83.9506 53.496 84.1933 54.112C84.4359 54.7187 84.5573 55.3813 84.5573 56.1C84.5573 56.8187 84.4359 57.486 84.1933 58.102C83.9506 58.7087 83.6099 59.2407 83.1713 59.698C82.7326 60.146 82.2146 60.496 81.6173 60.748C81.0293 61 80.3853 61.126 79.6853 61.126C78.9853 61.126 78.3366 61 77.7393 60.748C77.1513 60.496 76.6379 60.146 76.1993 59.698C75.7606 59.2407 75.4199 58.7087 75.1773 58.102C74.9346 57.486 74.8133 56.8187 74.8133 56.1ZM90.1038 56.1C90.1038 56.912 90.2764 57.64 90.6218 58.284C90.9764 58.928 91.4571 59.4367 92.0638 59.81C92.6798 60.174 93.3798 60.356 94.1638 60.356C94.9478 60.356 95.6431 60.174 96.2498 59.81C96.8658 59.4367 97.3464 58.928 97.6918 58.284C98.0371 57.64 98.2098 56.912 98.2098 56.1C98.2098 55.2787 98.0371 54.5507 97.6918 53.916C97.3464 53.272 96.8658 52.768 96.2498 52.404C95.6431 52.0307 94.9478 51.844 94.1638 51.844C93.3798 51.844 92.6798 52.0307 92.0638 52.404C91.4571 52.768 90.9764 53.272 90.6218 53.916C90.2764 54.5507 90.1038 55.2787 90.1038 56.1ZM89.2918 56.1C89.2918 55.3813 89.4131 54.7187 89.6558 54.112C89.8984 53.496 90.2391 52.964 90.6778 52.516C91.1164 52.0587 91.6298 51.704 92.2178 51.452C92.8151 51.2 93.4638 51.074 94.1638 51.074C94.8638 51.074 95.5078 51.2 96.0958 51.452C96.6931 51.704 97.2111 52.0587 97.6498 52.516C98.0884 52.964 98.4291 53.496 98.6718 54.112C98.9144 54.7187 99.0358 55.3813 99.0358 56.1C99.0358 56.8187 98.9144 57.486 98.6718 58.102C98.4291 58.7087 98.0884 59.2407 97.6498 59.698C97.2111 60.146 96.6931 60.496 96.0958 60.748C95.5078 61 94.8638 61.126 94.1638 61.126C93.4638 61.126 92.8151 61 92.2178 60.748C91.6298 60.496 91.1164 60.146 90.6778 59.698C90.2391 59.2407 89.8984 58.7087 89.6558 58.102C89.4131 57.486 89.2918 56.8187 89.2918 56.1ZM112.098 58.172C112.256 58.5827 112.448 58.956 112.672 59.292C112.905 59.628 113.19 59.8987 113.526 60.104C113.862 60.3 114.263 60.398 114.73 60.398C115.364 60.398 115.859 60.2253 116.214 59.88C116.578 59.5253 116.76 59.0773 116.76 58.536C116.76 58.06 116.652 57.6773 116.438 57.388C116.223 57.0987 115.943 56.8653 115.598 56.688C115.262 56.5013 114.907 56.338 114.534 56.198C114.254 56.0953 113.96 55.974 113.652 55.834C113.353 55.6847 113.073 55.5073 112.812 55.302C112.55 55.0873 112.336 54.8307 112.168 54.532C112.009 54.2333 111.93 53.874 111.93 53.454C111.93 52.9873 112.042 52.5767 112.266 52.222C112.49 51.858 112.802 51.578 113.204 51.382C113.605 51.1767 114.058 51.074 114.562 51.074C115.084 51.074 115.532 51.172 115.906 51.368C116.288 51.564 116.606 51.8113 116.858 52.11C117.11 52.4087 117.301 52.7167 117.432 53.034L116.76 53.412C116.657 53.16 116.508 52.9127 116.312 52.67C116.125 52.4273 115.887 52.2267 115.598 52.068C115.308 51.9 114.949 51.816 114.52 51.816C113.95 51.816 113.512 51.9653 113.204 52.264C112.896 52.5533 112.742 52.9173 112.742 53.356C112.742 53.72 112.83 54.0327 113.008 54.294C113.185 54.5553 113.451 54.7933 113.806 55.008C114.16 55.2133 114.599 55.4093 115.122 55.596C115.392 55.6987 115.672 55.8247 115.962 55.974C116.251 56.1233 116.512 56.31 116.746 56.534C116.988 56.758 117.184 57.0287 117.334 57.346C117.483 57.654 117.558 58.0227 117.558 58.452C117.558 58.8533 117.483 59.2173 117.334 59.544C117.194 59.8707 116.993 60.1553 116.732 60.398C116.48 60.6313 116.181 60.8133 115.836 60.944C115.49 61.0653 115.117 61.126 114.716 61.126C114.146 61.126 113.647 61.0093 113.218 60.776C112.788 60.5427 112.429 60.23 112.14 59.838C111.85 59.446 111.626 59.0213 111.468 58.564L112.098 58.172ZM123.275 56.03V55.302H129.883V56.03H123.275ZM129.365 51.2H130.149V61H129.365V51.2ZM122.869 51.2H123.639V61H122.869V51.2ZM136.26 56.1C136.26 56.912 136.433 57.64 136.778 58.284C137.133 58.928 137.613 59.4367 138.22 59.81C138.836 60.174 139.536 60.356 140.32 60.356C141.104 60.356 141.799 60.174 142.406 59.81C143.022 59.4367 143.503 58.928 143.848 58.284C144.193 57.64 144.366 56.912 144.366 56.1C144.366 55.2787 144.193 54.5507 143.848 53.916C143.503 53.272 143.022 52.768 142.406 52.404C141.799 52.0307 141.104 51.844 140.32 51.844C139.536 51.844 138.836 52.0307 138.22 52.404C137.613 52.768 137.133 53.272 136.778 53.916C136.433 54.5507 136.26 55.2787 136.26 56.1ZM135.448 56.1C135.448 55.3813 135.569 54.7187 135.812 54.112C136.055 53.496 136.395 52.964 136.834 52.516C137.273 52.0587 137.786 51.704 138.374 51.452C138.971 51.2 139.62 51.074 140.32 51.074C141.02 51.074 141.664 51.2 142.252 51.452C142.849 51.704 143.367 52.0587 143.806 52.516C144.245 52.964 144.585 53.496 144.828 54.112C145.071 54.7187 145.192 55.3813 145.192 56.1C145.192 56.8187 145.071 57.486 144.828 58.102C144.585 58.7087 144.245 59.2407 143.806 59.698C143.367 60.146 142.849 60.496 142.252 60.748C141.664 61 141.02 61.126 140.32 61.126C139.62 61.126 138.971 61 138.374 60.748C137.786 60.496 137.273 60.146 136.834 59.698C136.395 59.2407 136.055 58.7087 135.812 58.102C135.569 57.486 135.448 56.8187 135.448 56.1ZM150.487 51.2H151.257V61H150.487V51.2ZM150.921 51.928V51.2H152.783C153.399 51.2 153.945 51.3167 154.421 51.55C154.906 51.7833 155.289 52.1147 155.569 52.544C155.849 52.9733 155.989 53.4913 155.989 54.098C155.989 54.6953 155.849 55.2133 155.569 55.652C155.289 56.0907 154.906 56.4267 154.421 56.66C153.945 56.884 153.399 56.996 152.783 56.996H150.921V56.268H152.783C153.501 56.268 154.085 56.0813 154.533 55.708C154.981 55.3347 155.205 54.798 155.205 54.098C155.205 53.3887 154.981 52.852 154.533 52.488C154.085 52.1147 153.501 51.928 152.783 51.928H150.921Z" fill="#BB8C5F"/>
<path d="M0.113249 39L3 41.8868L5.88675 39L3 36.1132L0.113249 39ZM191.887 39L189 36.1132L186.113 39L189 41.8867L191.887 39ZM3 39.5L189 39.5L189 38.5L3 38.5L3 39.5Z" fill="#BB8C5F"/>
<path d="M28.49 28.7H28.64C28.78 28.7 28.91 28.64 29.03 28.52C29.15 28.4 29.25 28.26 29.33 28.1C29.43 27.94 29.5 27.77 29.54 27.59C29.58 27.39 29.6 27.21 29.6 27.05V11.27L21.86 29.33L14.51 12.2V27.05C14.51 27.21 14.53 27.39 14.57 27.59C14.61 27.77 14.67 27.94 14.75 28.1C14.85 28.26 14.96 28.4 15.08 28.52C15.2 28.64 15.34 28.7 15.5 28.7H15.65V29H12.38V28.7H12.53C12.67 28.7 12.8 28.64 12.92 28.52C13.04 28.4 13.14 28.26 13.22 28.1C13.3 27.94 13.36 27.77 13.4 27.59C13.44 27.39 13.46 27.21 13.46 27.05V11.06C13.46 10.92 13.44 10.76 13.4 10.58C13.36 10.4 13.3 10.23 13.22 10.07C13.14 9.91 13.04 9.78 12.92 9.68C12.8 9.56 12.67 9.5 12.53 9.5H12.38V9.2H15.44L22.4 25.61L29.36 9.2H32.75V9.5H32.6C32.44 9.5 32.3 9.56 32.18 9.68C32.06 9.78 31.95 9.91 31.85 10.07C31.77 10.23 31.71 10.4 31.67 10.58C31.63 10.76 31.61 10.92 31.61 11.06V27.05C31.61 27.21 31.63 27.39 31.67 27.59C31.71 27.77 31.77 27.94 31.85 28.1C31.95 28.26 32.06 28.4 32.18 28.52C32.3 28.64 32.44 28.7 32.6 28.7H32.75V29H28.49V28.7ZM39.7503 28.7H39.9003V29H35.6703V28.7H35.8203C35.9603 28.7 36.0903 28.64 36.2103 28.52C36.3303 28.4 36.4303 28.26 36.5103 28.1C36.6103 27.94 36.6803 27.77 36.7203 27.59C36.7603 27.39 36.7803 27.21 36.7803 27.05V11.06C36.7803 10.92 36.7603 10.76 36.7203 10.58C36.6803 10.4 36.6103 10.23 36.5103 10.07C36.4303 9.91 36.3303 9.78 36.2103 9.68C36.0903 9.56 35.9603 9.5 35.8203 9.5H35.6703V9.2H40.8903C42.8903 9.2 44.4303 9.59 45.5103 10.37C46.6103 11.15 47.1603 12.3 47.1603 13.82C47.1603 14.58 47.0303 15.25 46.7703 15.83C46.5303 16.39 46.2003 16.88 45.7803 17.3C45.3603 17.7 44.8603 18.03 44.2803 18.29C43.7203 18.53 43.1203 18.71 42.4803 18.83L44.6403 22.13C45.1603 22.93 45.6903 23.72 46.2303 24.5C46.7703 25.26 47.3003 26.05 47.8203 26.87C47.9603 27.07 48.1103 27.28 48.2703 27.5C48.4503 27.72 48.6303 27.92 48.8103 28.1C49.0103 28.28 49.2103 28.43 49.4103 28.55C49.6303 28.65 49.8503 28.7 50.0703 28.7V29H48.7803C47.9803 29 47.3203 28.81 46.8003 28.43C46.3003 28.03 45.8803 27.57 45.5403 27.05C44.6403 25.73 43.7403 24.39 42.8403 23.03C41.9603 21.67 41.0803 20.33 40.2003 19.01C39.9803 18.99 39.7403 18.97 39.4803 18.95C39.2403 18.91 39.0103 18.87 38.7903 18.83V27.05C38.7903 27.21 38.8103 27.39 38.8503 27.59C38.8903 27.77 38.9503 27.94 39.0303 28.1C39.1303 28.26 39.2303 28.4 39.3303 28.52C39.4503 28.64 39.5903 28.7 39.7503 28.7ZM38.7903 10.22V17.84H38.9403C39.1003 17.86 39.3503 17.88 39.6903 17.9C40.0503 17.9 40.4903 17.9 41.0103 17.9C41.4303 17.9 41.8703 17.84 42.3303 17.72C42.8103 17.58 43.2503 17.36 43.6503 17.06C44.0703 16.74 44.4103 16.33 44.6703 15.83C44.9503 15.33 45.0903 14.7 45.0903 13.94C45.0903 13.18 44.9403 12.56 44.6403 12.08C44.3603 11.6 43.9603 11.22 43.4403 10.94C42.9403 10.66 42.3303 10.47 41.6103 10.37C40.8903 10.27 40.1003 10.22 39.2403 10.22H38.7903ZM52.0815 27.71C52.0815 27.31 52.2115 26.97 52.4715 26.69C52.7515 26.41 53.0915 26.27 53.4915 26.27C53.8915 26.27 54.2315 26.41 54.5115 26.69C54.7915 26.97 54.9315 27.31 54.9315 27.71C54.9315 28.11 54.7915 28.45 54.5115 28.73C54.2315 28.99 53.8915 29.12 53.4915 29.12C53.0915 29.12 52.7515 28.99 52.4715 28.73C52.2115 28.45 52.0815 28.11 52.0815 27.71ZM65.6696 28.7H65.8196C65.9596 28.7 66.0896 28.64 66.2096 28.52C66.3296 28.4 66.4296 28.26 66.5096 28.1C66.6096 27.94 66.6796 27.77 66.7196 27.59C66.7596 27.39 66.7796 27.21 66.7796 27.05V11.06C66.7796 10.92 66.7596 10.76 66.7196 10.58C66.6796 10.4 66.6196 10.23 66.5396 10.07C66.4596 9.91 66.3596 9.78 66.2396 9.68C66.1196 9.56 65.9796 9.5 65.8196 9.5H65.6696V9.2H71.4596C73.0396 9.2 74.4596 9.48 75.7196 10.04C76.9796 10.58 78.0396 11.32 78.8996 12.26C79.7796 13.18 80.4496 14.24 80.9096 15.44C81.3696 16.64 81.5996 17.89 81.5996 19.19C81.5996 20.41 81.3796 21.61 80.9396 22.79C80.4996 23.95 79.8396 24.99 78.9596 25.91C78.0796 26.83 76.9796 27.58 75.6596 28.16C74.3396 28.72 72.8096 29 71.0696 29H65.6696V28.7ZM79.5596 19.64C79.5596 18.36 79.3296 17.15 78.8696 16.01C78.4096 14.87 77.7596 13.88 76.9196 13.04C76.0996 12.18 75.1196 11.5 73.9796 11C72.8596 10.5 71.6396 10.25 70.3196 10.25H68.7896V27.95H70.3796C71.4596 27.95 72.5396 27.79 73.6196 27.47C74.7196 27.13 75.7096 26.62 76.5896 25.94C77.4696 25.24 78.1796 24.37 78.7196 23.33C79.2796 22.29 79.5596 21.06 79.5596 19.64ZM88.2659 28.7H88.4159V29H84.1859V28.7H84.3359C84.4759 28.7 84.6059 28.64 84.7259 28.52C84.8459 28.4 84.9459 28.26 85.0259 28.1C85.1259 27.94 85.1959 27.77 85.2359 27.59C85.2759 27.39 85.2959 27.21 85.2959 27.05V11.06C85.2959 10.92 85.2759 10.76 85.2359 10.58C85.1959 10.4 85.1259 10.23 85.0259 10.07C84.9459 9.91 84.8459 9.78 84.7259 9.68C84.6059 9.56 84.4759 9.5 84.3359 9.5H84.1859V9.2H89.4059C91.4059 9.2 92.9459 9.59 94.0259 10.37C95.1259 11.15 95.6759 12.3 95.6759 13.82C95.6759 14.58 95.5459 15.25 95.2859 15.83C95.0459 16.39 94.7159 16.88 94.2959 17.3C93.8759 17.7 93.3759 18.03 92.7959 18.29C92.2359 18.53 91.6359 18.71 90.9959 18.83L93.1559 22.13C93.6759 22.93 94.2059 23.72 94.7459 24.5C95.2859 25.26 95.8159 26.05 96.3359 26.87C96.4759 27.07 96.6259 27.28 96.7859 27.5C96.9659 27.72 97.1459 27.92 97.3259 28.1C97.5259 28.28 97.7259 28.43 97.9259 28.55C98.1459 28.65 98.3659 28.7 98.5859 28.7V29H97.2959C96.4959 29 95.8359 28.81 95.3159 28.43C94.8159 28.03 94.3959 27.57 94.0559 27.05C93.1559 25.73 92.2559 24.39 91.3559 23.03C90.4759 21.67 89.5959 20.33 88.7159 19.01C88.4959 18.99 88.2559 18.97 87.9959 18.95C87.7559 18.91 87.5259 18.87 87.3059 18.83V27.05C87.3059 27.21 87.3259 27.39 87.3659 27.59C87.4059 27.77 87.4659 27.94 87.5459 28.1C87.6459 28.26 87.7459 28.4 87.8459 28.52C87.9659 28.64 88.1059 28.7 88.2659 28.7ZM87.3059 10.22V17.84H87.4559C87.6159 17.86 87.8659 17.88 88.2059 17.9C88.5659 17.9 89.0059 17.9 89.5259 17.9C89.9459 17.9 90.3859 17.84 90.8459 17.72C91.3259 17.58 91.7659 17.36 92.1659 17.06C92.5859 16.74 92.9259 16.33 93.1859 15.83C93.4659 15.33 93.6059 14.7 93.6059 13.94C93.6059 13.18 93.4559 12.56 93.1559 12.08C92.8759 11.6 92.4759 11.22 91.9559 10.94C91.4559 10.66 90.8459 10.47 90.1259 10.37C89.4059 10.27 88.6159 10.22 87.7559 10.22H87.3059ZM100.507 9.2H104.797V9.5H104.647C104.507 9.5 104.377 9.56 104.257 9.68C104.137 9.78 104.037 9.91 103.957 10.07C103.877 10.21 103.807 10.38 103.747 10.58C103.707 10.76 103.687 10.92 103.687 11.06V27.05C103.687 27.21 103.707 27.39 103.747 27.59C103.787 27.77 103.847 27.94 103.927 28.1C104.027 28.26 104.127 28.4 104.227 28.52C104.347 28.64 104.487 28.7 104.647 28.7H104.797V29H100.507V28.7H100.657C100.817 28.7 100.957 28.65 101.077 28.55C101.197 28.43 101.297 28.29 101.377 28.13C101.477 27.95 101.547 27.77 101.587 27.59C101.627 27.39 101.647 27.21 101.647 27.05V11.06C101.647 10.92 101.627 10.76 101.587 10.58C101.547 10.4 101.477 10.23 101.377 10.07C101.297 9.91 101.197 9.78 101.077 9.68C100.957 9.56 100.817 9.5 100.657 9.5H100.507V9.2ZM119.832 23.69C119.832 24.69 119.632 25.55 119.232 26.27C118.832 26.97 118.312 27.54 117.672 27.98C117.052 28.42 116.342 28.74 115.542 28.94C114.762 29.14 113.982 29.24 113.202 29.24C112.402 29.24 111.712 29.16 111.132 29C110.552 28.84 110.022 28.69 109.542 28.55C109.222 28.45 108.932 28.37 108.672 28.31C108.412 28.23 108.152 28.19 107.892 28.19V24.77H108.192C108.192 25.53 108.382 26.14 108.762 26.6C109.162 27.04 109.622 27.38 110.142 27.62C110.662 27.86 111.182 28.02 111.702 28.1C112.222 28.16 112.602 28.19 112.842 28.19C113.702 28.19 114.442 28.07 115.062 27.83C115.682 27.57 116.192 27.24 116.592 26.84C116.992 26.42 117.282 25.96 117.462 25.46C117.662 24.96 117.762 24.45 117.762 23.93C117.762 23.27 117.622 22.72 117.342 22.28C117.062 21.82 116.692 21.42 116.232 21.08C115.792 20.74 115.282 20.45 114.702 20.21C114.122 19.97 113.532 19.73 112.932 19.49C112.252 19.23 111.582 18.96 110.922 18.68C110.262 18.4 109.672 18.06 109.152 17.66C108.632 17.24 108.212 16.75 107.892 16.19C107.572 15.61 107.412 14.9 107.412 14.06C107.412 13.18 107.582 12.42 107.922 11.78C108.262 11.12 108.712 10.58 109.272 10.16C109.852 9.74 110.502 9.43 111.222 9.23C111.962 9.01 112.712 8.9 113.472 8.9C113.992 8.9 114.482 8.94 114.942 9.02C115.402 9.08 115.842 9.16 116.262 9.26C116.602 9.34 116.932 9.41 117.252 9.47C117.572 9.51 117.882 9.53 118.182 9.53V12.62H117.882C117.842 11.58 117.432 10.88 116.652 10.52C115.872 10.14 114.792 9.95 113.412 9.95C112.612 9.95 111.952 10.09 111.432 10.37C110.932 10.63 110.532 10.96 110.232 11.36C109.932 11.74 109.722 12.16 109.602 12.62C109.502 13.06 109.452 13.45 109.452 13.79C109.452 14.35 109.572 14.83 109.812 15.23C110.072 15.63 110.412 15.98 110.832 16.28C111.252 16.58 111.732 16.85 112.272 17.09C112.832 17.33 113.412 17.56 114.012 17.78C114.692 18.04 115.382 18.32 116.082 18.62C116.782 18.92 117.402 19.29 117.942 19.73C118.502 20.17 118.952 20.71 119.292 21.35C119.652 21.99 119.832 22.77 119.832 23.69ZM126.529 28.7H126.679V29H122.389V28.7H122.539C122.699 28.7 122.839 28.64 122.959 28.52C123.079 28.4 123.179 28.26 123.259 28.1C123.359 27.94 123.429 27.77 123.469 27.59C123.509 27.39 123.529 27.21 123.529 27.05V11.06C123.529 10.92 123.509 10.76 123.469 10.58C123.429 10.4 123.359 10.23 123.259 10.07C123.179 9.91 123.079 9.78 122.959 9.68C122.839 9.56 122.709 9.5 122.569 9.5H122.419V9.2H126.709V9.5H126.559C126.399 9.5 126.259 9.56 126.139 9.68C126.019 9.78 125.909 9.91 125.809 10.07C125.729 10.23 125.659 10.4 125.599 10.58C125.559 10.76 125.539 10.92 125.539 11.06V18.02L133.159 10.46C133.279 10.32 133.339 10.16 133.339 9.98C133.339 9.66 133.219 9.5 132.979 9.5H132.829V9.2H136.489V9.5H136.339C136.059 9.5 135.769 9.6 135.469 9.8C135.169 10 134.869 10.25 134.569 10.55L128.269 16.82L134.899 26.87C134.919 26.91 135.009 27.03 135.169 27.23C135.329 27.43 135.519 27.64 135.739 27.86C135.979 28.08 136.239 28.28 136.519 28.46C136.819 28.62 137.119 28.7 137.419 28.7V29H136.699C136.099 29 135.589 28.97 135.169 28.91C134.769 28.83 134.419 28.71 134.119 28.55C133.819 28.39 133.549 28.19 133.309 27.95C133.089 27.71 132.859 27.41 132.619 27.05L126.799 18.26L125.539 19.55V27.05C125.539 27.21 125.559 27.38 125.599 27.56C125.659 27.74 125.729 27.92 125.809 28.1C125.889 28.26 125.989 28.4 126.109 28.52C126.229 28.64 126.369 28.7 126.529 28.7ZM139.381 28.7H139.531C139.691 28.7 139.831 28.65 139.951 28.55C140.071 28.43 140.171 28.29 140.251 28.13C140.351 27.97 140.421 27.8 140.461 27.62C140.521 27.44 140.551 27.27 140.551 27.11V11.06C140.551 10.92 140.521 10.76 140.461 10.58C140.421 10.4 140.351 10.23 140.251 10.07C140.171 9.91 140.071 9.78 139.951 9.68C139.831 9.56 139.691 9.5 139.531 9.5H139.381V9.2H150.931V11.99H150.631C150.591 11.53 150.411 11.13 150.091 10.79C149.771 10.43 149.271 10.25 148.591 10.25H142.561V17.84H147.541C148.001 17.84 148.381 17.7 148.681 17.42C149.001 17.14 149.161 16.81 149.161 16.43H149.461V20.18H149.161C149.161 19.82 149.011 19.51 148.711 19.25C148.411 18.99 148.021 18.86 147.541 18.86H142.561V27.95H149.131C149.511 27.95 149.841 27.86 150.121 27.68C150.401 27.5 150.631 27.29 150.811 27.05C151.011 26.79 151.151 26.52 151.231 26.24C151.331 25.94 151.381 25.69 151.381 25.49H151.681V29H139.381V28.7ZM153.942 28.7H154.092C154.252 28.7 154.392 28.65 154.512 28.55C154.632 28.43 154.732 28.29 154.812 28.13C154.912 27.97 154.982 27.8 155.022 27.62C155.082 27.44 155.112 27.27 155.112 27.11V11.06C155.112 10.92 155.082 10.76 155.022 10.58C154.982 10.4 154.912 10.23 154.812 10.07C154.732 9.91 154.632 9.78 154.512 9.68C154.392 9.56 154.252 9.5 154.092 9.5H153.942V9.2H158.262V9.5H158.112C157.952 9.5 157.812 9.56 157.692 9.68C157.572 9.78 157.472 9.91 157.392 10.07C157.312 10.23 157.242 10.4 157.182 10.58C157.142 10.76 157.122 10.92 157.122 11.06V27.89H163.692C164.072 27.89 164.402 27.8 164.682 27.62C164.962 27.44 165.192 27.22 165.372 26.96C165.572 26.68 165.712 26.39 165.792 26.09C165.892 25.77 165.942 25.48 165.942 25.22H166.242V29H153.942V28.7ZM167.887 28.7H168.037C168.197 28.7 168.337 28.65 168.457 28.55C168.577 28.43 168.677 28.29 168.757 28.13C168.857 27.97 168.927 27.8 168.967 27.62C169.027 27.44 169.057 27.27 169.057 27.11V11.06C169.057 10.92 169.027 10.76 168.967 10.58C168.927 10.4 168.857 10.23 168.757 10.07C168.677 9.91 168.577 9.78 168.457 9.68C168.337 9.56 168.197 9.5 168.037 9.5H167.887V9.2H172.207V9.5H172.057C171.897 9.5 171.757 9.56 171.637 9.68C171.517 9.78 171.417 9.91 171.337 10.07C171.257 10.23 171.187 10.4 171.127 10.58C171.087 10.76 171.067 10.92 171.067 11.06V27.89H177.637C178.017 27.89 178.347 27.8 178.627 27.62C178.907 27.44 179.137 27.22 179.317 26.96C179.517 26.68 179.657 26.39 179.737 26.09C179.837 25.77 179.887 25.48 179.887 25.22H180.187V29H167.887V28.7Z" fill="#BB8C5F"/>
</svg>
