<svg width="350" height="140" viewBox="0 0 350 140" fill="none" xmlns="http://www.w3.org/2000/svg">
<path d="M39.6 16.38C39.6 15.7133 39.7667 15.1133 40.1 14.58C40.4467 14.0333 40.9067 13.6 41.48 13.28C42.0667 12.96 42.7267 12.8 43.46 12.8C44.1933 12.8 44.8467 12.96 45.42 13.28C46.0067 13.6 46.4667 14.0333 46.8 14.58C47.1467 15.1133 47.32 15.7133 47.32 16.38C47.32 16.9267 47.2267 17.42 47.04 17.86C46.8533 18.2867 46.5867 18.6533 46.24 18.96C45.9067 19.2667 45.5 19.5 45.02 19.66C44.5533 19.82 44.0333 19.9 43.46 19.9C42.8867 19.9 42.36 19.82 41.88 19.66C41.4133 19.5 41.0067 19.2667 40.66 18.96C40.3267 18.6533 40.0667 18.2867 39.88 17.86C39.6933 17.42 39.6 16.9267 39.6 16.38ZM41.22 16.58C41.22 17.02 41.32 17.4067 41.52 17.74C41.7333 18.0733 42.0067 18.3333 42.34 18.52C42.6867 18.7067 43.06 18.8 43.46 18.8C43.86 18.8 44.2267 18.7067 44.56 18.52C44.9067 18.3333 45.18 18.0733 45.38 17.74C45.5933 17.4067 45.7 17.02 45.7 16.58C45.7 16.14 45.6 15.7467 45.4 15.4C45.2133 15.0533 44.9533 14.7867 44.62 14.6C44.2867 14.4 43.9 14.3 43.46 14.3C43.0333 14.3 42.6467 14.4 42.3 14.6C41.9667 14.7867 41.7 15.0533 41.5 15.4C41.3133 15.7467 41.22 16.14 41.22 16.58ZM39.1 23.2C39.1 22.56 39.2133 21.9933 39.44 21.5C39.68 20.9933 40 20.5733 40.4 20.24C40.8133 19.8933 41.28 19.6333 41.8 19.46C42.3333 19.2867 42.8867 19.2 43.46 19.2C44.0333 19.2 44.58 19.2867 45.1 19.46C45.6333 19.6333 46.1 19.8933 46.5 20.24C46.9133 20.5733 47.2333 20.9933 47.46 21.5C47.7 21.9933 47.82 22.56 47.82 23.2C47.82 23.7467 47.7067 24.26 47.48 24.74C47.2667 25.22 46.96 25.6467 46.56 26.02C46.1733 26.3933 45.7133 26.6867 45.18 26.9C44.66 27.1 44.0867 27.2 43.46 27.2C42.8333 27.2 42.2533 27.1 41.72 26.9C41.2 26.6867 40.74 26.3933 40.34 26.02C39.9533 25.6467 39.6467 25.22 39.42 24.74C39.2067 24.26 39.1 23.7467 39.1 23.2ZM40.72 23C40.72 23.5733 40.8467 24.06 41.1 24.46C41.3667 24.86 41.7067 25.1667 42.12 25.38C42.5467 25.5933 42.9933 25.7 43.46 25.7C43.9267 25.7 44.3667 25.5933 44.78 25.38C45.2067 25.1667 45.5467 24.86 45.8 24.46C46.0667 24.06 46.2 23.5733 46.2 23C46.2 22.4933 46.0667 22.04 45.8 21.64C45.5467 21.2267 45.2067 20.9 44.78 20.66C44.3667 20.42 43.9267 20.3 43.46 20.3C42.9933 20.3 42.5467 20.42 42.12 20.66C41.7067 20.9 41.3667 21.2267 41.1 21.64C40.8467 22.04 40.72 22.4933 40.72 23ZM56.5141 16.38C56.5141 15.7133 56.6807 15.1133 57.0141 14.58C57.3607 14.0333 57.8207 13.6 58.3941 13.28C58.9807 12.96 59.6407 12.8 60.3741 12.8C61.1074 12.8 61.7607 12.96 62.3341 13.28C62.9207 13.6 63.3807 14.0333 63.7141 14.58C64.0607 15.1133 64.2341 15.7133 64.2341 16.38C64.2341 16.9267 64.1407 17.42 63.9541 17.86C63.7674 18.2867 63.5007 18.6533 63.1541 18.96C62.8207 19.2667 62.4141 19.5 61.9341 19.66C61.4674 19.82 60.9474 19.9 60.3741 19.9C59.8007 19.9 59.2741 19.82 58.7941 19.66C58.3274 19.5 57.9207 19.2667 57.5741 18.96C57.2407 18.6533 56.9807 18.2867 56.7941 17.86C56.6074 17.42 56.5141 16.9267 56.5141 16.38ZM58.1341 16.58C58.1341 17.02 58.2341 17.4067 58.4341 17.74C58.6474 18.0733 58.9207 18.3333 59.2541 18.52C59.6007 18.7067 59.9741 18.8 60.3741 18.8C60.7741 18.8 61.1407 18.7067 61.4741 18.52C61.8207 18.3333 62.0941 18.0733 62.2941 17.74C62.5074 17.4067 62.6141 17.02 62.6141 16.58C62.6141 16.14 62.5141 15.7467 62.3141 15.4C62.1274 15.0533 61.8674 14.7867 61.5341 14.6C61.2007 14.4 60.8141 14.3 60.3741 14.3C59.9474 14.3 59.5607 14.4 59.2141 14.6C58.8807 14.7867 58.6141 15.0533 58.4141 15.4C58.2274 15.7467 58.1341 16.14 58.1341 16.58ZM56.0141 23.2C56.0141 22.56 56.1274 21.9933 56.3541 21.5C56.5941 20.9933 56.9141 20.5733 57.3141 20.24C57.7274 19.8933 58.1941 19.6333 58.7141 19.46C59.2474 19.2867 59.8007 19.2 60.3741 19.2C60.9474 19.2 61.4941 19.2867 62.0141 19.46C62.5474 19.6333 63.0141 19.8933 63.4141 20.24C63.8274 20.5733 64.1474 20.9933 64.3741 21.5C64.6141 21.9933 64.7341 22.56 64.7341 23.2C64.7341 23.7467 64.6207 24.26 64.3941 24.74C64.1807 25.22 63.8741 25.6467 63.4741 26.02C63.0874 26.3933 62.6274 26.6867 62.0941 26.9C61.5741 27.1 61.0007 27.2 60.3741 27.2C59.7474 27.2 59.1674 27.1 58.6341 26.9C58.1141 26.6867 57.6541 26.3933 57.2541 26.02C56.8674 25.6467 56.5607 25.22 56.3341 24.74C56.1207 24.26 56.0141 23.7467 56.0141 23.2ZM57.6341 23C57.6341 23.5733 57.7607 24.06 58.0141 24.46C58.2807 24.86 58.6207 25.1667 59.0341 25.38C59.4607 25.5933 59.9074 25.7 60.3741 25.7C60.8407 25.7 61.2807 25.5933 61.6941 25.38C62.1207 25.1667 62.4607 24.86 62.7141 24.46C62.9807 24.06 63.1141 23.5733 63.1141 23C63.1141 22.4933 62.9807 22.04 62.7141 21.64C62.4607 21.2267 62.1207 20.9 61.6941 20.66C61.2807 20.42 60.8407 20.3 60.3741 20.3C59.9074 20.3 59.4607 20.42 59.0341 20.66C58.6207 20.9 58.2807 21.2267 58.0141 21.64C57.7607 22.04 57.6341 22.4933 57.6341 23ZM68.332 20C68.332 20.8133 68.412 21.5667 68.572 22.26C68.732 22.94 68.9654 23.5333 69.272 24.04C69.5787 24.5333 69.9454 24.92 70.372 25.2C70.812 25.4667 71.2987 25.6 71.832 25.6C72.3787 25.6 72.8654 25.4667 73.292 25.2C73.7187 24.92 74.0854 24.5333 74.392 24.04C74.6987 23.5333 74.932 22.94 75.092 22.26C75.252 21.5667 75.332 20.8133 75.332 20C75.332 19.1867 75.252 18.44 75.092 17.76C74.932 17.0667 74.6987 16.4733 74.392 15.98C74.0854 15.4733 73.7187 15.0867 73.292 14.82C72.8654 14.54 72.3787 14.4 71.832 14.4C71.2987 14.4 70.812 14.54 70.372 14.82C69.9454 15.0867 69.5787 15.4733 69.272 15.98C68.9654 16.4733 68.732 17.0667 68.572 17.76C68.412 18.44 68.332 19.1867 68.332 20ZM66.632 20C66.632 18.6 66.852 17.36 67.292 16.28C67.732 15.2 68.3387 14.3533 69.112 13.74C69.8987 13.1133 70.8054 12.8 71.832 12.8C72.8587 12.8 73.7587 13.1133 74.532 13.74C75.3187 14.3533 75.932 15.2 76.372 16.28C76.812 17.36 77.032 18.6 77.032 20C77.032 21.4 76.812 22.64 76.372 23.72C75.932 24.8 75.3187 25.6533 74.532 26.28C73.7587 26.8933 72.8587 27.2 71.832 27.2C70.8054 27.2 69.8987 26.8933 69.112 26.28C68.3387 25.6533 67.732 24.8 67.292 23.72C66.852 22.64 66.632 21.4 66.632 20ZM80.3242 20C80.3242 20.8133 80.4042 21.5667 80.5642 22.26C80.7242 22.94 80.9576 23.5333 81.2642 24.04C81.5709 24.5333 81.9376 24.92 82.3642 25.2C82.8042 25.4667 83.2909 25.6 83.8242 25.6C84.3709 25.6 84.8576 25.4667 85.2842 25.2C85.7109 24.92 86.0776 24.5333 86.3842 24.04C86.6909 23.5333 86.9242 22.94 87.0842 22.26C87.2442 21.5667 87.3242 20.8133 87.3242 20C87.3242 19.1867 87.2442 18.44 87.0842 17.76C86.9242 17.0667 86.6909 16.4733 86.3842 15.98C86.0776 15.4733 85.7109 15.0867 85.2842 14.82C84.8576 14.54 84.3709 14.4 83.8242 14.4C83.2909 14.4 82.8042 14.54 82.3642 14.82C81.9376 15.0867 81.5709 15.4733 81.2642 15.98C80.9576 16.4733 80.7242 17.0667 80.5642 17.76C80.4042 18.44 80.3242 19.1867 80.3242 20ZM78.6242 20C78.6242 18.6 78.8442 17.36 79.2842 16.28C79.7242 15.2 80.3309 14.3533 81.1042 13.74C81.8909 13.1133 82.7976 12.8 83.8242 12.8C84.8509 12.8 85.7509 13.1133 86.5242 13.74C87.3109 14.3533 87.9242 15.2 88.3642 16.28C88.8042 17.36 89.0242 18.6 89.0242 20C89.0242 21.4 88.8042 22.64 88.3642 23.72C87.9242 24.8 87.3109 25.6533 86.5242 26.28C85.7509 26.8933 84.8509 27.2 83.8242 27.2C82.7976 27.2 81.8909 26.8933 81.1042 26.28C80.3309 25.6533 79.7242 24.8 79.2842 23.72C78.8442 22.64 78.6242 21.4 78.6242 20ZM98.4325 22.4C98.4325 23.04 98.5658 23.6067 98.8325 24.1C99.1125 24.58 99.4858 24.96 99.9525 25.24C100.433 25.52 100.973 25.66 101.573 25.66C102.173 25.66 102.706 25.52 103.173 25.24C103.653 24.96 104.026 24.58 104.293 24.1C104.573 23.6067 104.713 23.04 104.713 22.4C104.713 21.76 104.573 21.1933 104.293 20.7C104.026 20.1933 103.653 19.8 103.173 19.52C102.706 19.24 102.173 19.1 101.573 19.1C100.973 19.1 100.433 19.24 99.9525 19.52C99.4858 19.8 99.1125 20.1933 98.8325 20.7C98.5658 21.1933 98.4325 21.76 98.4325 22.4ZM102.413 13H104.553L100.173 18.78L100.053 18.68C100.319 18.3467 100.626 18.1267 100.973 18.02C101.333 17.9133 101.739 17.86 102.193 17.86C102.766 17.86 103.299 17.9733 103.793 18.2C104.299 18.4267 104.739 18.7467 105.113 19.16C105.499 19.5733 105.799 20.06 106.013 20.62C106.226 21.1667 106.333 21.76 106.333 22.4C106.333 23.36 106.119 24.2 105.693 24.92C105.279 25.64 104.713 26.2 103.993 26.6C103.286 27 102.479 27.2 101.573 27.2C100.679 27.2 99.8725 27 99.1525 26.6C98.4325 26.2 97.8592 25.64 97.4325 24.92C97.0192 24.2 96.8125 23.36 96.8125 22.4C96.8125 21.8267 96.8925 21.2933 97.0525 20.8C97.2125 20.3067 97.4258 19.8733 97.6925 19.5L102.413 13ZM109.836 20C109.836 20.8133 109.916 21.5667 110.076 22.26C110.236 22.94 110.469 23.5333 110.776 24.04C111.083 24.5333 111.449 24.92 111.876 25.2C112.316 25.4667 112.803 25.6 113.336 25.6C113.883 25.6 114.369 25.4667 114.796 25.2C115.223 24.92 115.589 24.5333 115.896 24.04C116.203 23.5333 116.436 22.94 116.596 22.26C116.756 21.5667 116.836 20.8133 116.836 20C116.836 19.1867 116.756 18.44 116.596 17.76C116.436 17.0667 116.203 16.4733 115.896 15.98C115.589 15.4733 115.223 15.0867 114.796 14.82C114.369 14.54 113.883 14.4 113.336 14.4C112.803 14.4 112.316 14.54 111.876 14.82C111.449 15.0867 111.083 15.4733 110.776 15.98C110.469 16.4733 110.236 17.0667 110.076 17.76C109.916 18.44 109.836 19.1867 109.836 20ZM108.136 20C108.136 18.6 108.356 17.36 108.796 16.28C109.236 15.2 109.843 14.3533 110.616 13.74C111.403 13.1133 112.309 12.8 113.336 12.8C114.363 12.8 115.263 13.1133 116.036 13.74C116.823 14.3533 117.436 15.2 117.876 16.28C118.316 17.36 118.536 18.6 118.536 20C118.536 21.4 118.316 22.64 117.876 23.72C117.436 24.8 116.823 25.6533 116.036 26.28C115.263 26.8933 114.363 27.2 113.336 27.2C112.309 27.2 111.403 26.8933 110.616 26.28C109.843 25.6533 109.236 24.8 108.796 23.72C108.356 22.64 108.136 21.4 108.136 20ZM121.828 20C121.828 20.8133 121.908 21.5667 122.068 22.26C122.228 22.94 122.461 23.5333 122.768 24.04C123.075 24.5333 123.441 24.92 123.868 25.2C124.308 25.4667 124.795 25.6 125.328 25.6C125.875 25.6 126.361 25.4667 126.788 25.2C127.215 24.92 127.581 24.5333 127.888 24.04C128.195 23.5333 128.428 22.94 128.588 22.26C128.748 21.5667 128.828 20.8133 128.828 20C128.828 19.1867 128.748 18.44 128.588 17.76C128.428 17.0667 128.195 16.4733 127.888 15.98C127.581 15.4733 127.215 15.0867 126.788 14.82C126.361 14.54 125.875 14.4 125.328 14.4C124.795 14.4 124.308 14.54 123.868 14.82C123.441 15.0867 123.075 15.4733 122.768 15.98C122.461 16.4733 122.228 17.0667 122.068 17.76C121.908 18.44 121.828 19.1867 121.828 20ZM120.128 20C120.128 18.6 120.348 17.36 120.788 16.28C121.228 15.2 121.835 14.3533 122.608 13.74C123.395 13.1133 124.301 12.8 125.328 12.8C126.355 12.8 127.255 13.1133 128.028 13.74C128.815 14.3533 129.428 15.2 129.868 16.28C130.308 17.36 130.528 18.6 130.528 20C130.528 21.4 130.308 22.64 129.868 23.72C129.428 24.8 128.815 25.6533 128.028 26.28C127.255 26.8933 126.355 27.2 125.328 27.2C124.301 27.2 123.395 26.8933 122.608 26.28C121.835 25.6533 121.228 24.8 120.788 23.72C120.348 22.64 120.128 21.4 120.128 20ZM131.42 23V21.5H135.42V23H131.42ZM138.14 22.4C138.14 23.04 138.273 23.6067 138.54 24.1C138.82 24.58 139.193 24.96 139.66 25.24C140.14 25.52 140.68 25.66 141.28 25.66C141.88 25.66 142.413 25.52 142.88 25.24C143.36 24.96 143.733 24.58 144 24.1C144.28 23.6067 144.42 23.04 144.42 22.4C144.42 21.76 144.28 21.1933 144 20.7C143.733 20.1933 143.36 19.8 142.88 19.52C142.413 19.24 141.88 19.1 141.28 19.1C140.68 19.1 140.14 19.24 139.66 19.52C139.193 19.8 138.82 20.1933 138.54 20.7C138.273 21.1933 138.14 21.76 138.14 22.4ZM142.12 13H144.26L139.88 18.78L139.76 18.68C140.026 18.3467 140.333 18.1267 140.68 18.02C141.04 17.9133 141.446 17.86 141.9 17.86C142.473 17.86 143.006 17.9733 143.5 18.2C144.006 18.4267 144.446 18.7467 144.82 19.16C145.206 19.5733 145.506 20.06 145.72 20.62C145.933 21.1667 146.04 21.76 146.04 22.4C146.04 23.36 145.826 24.2 145.4 24.92C144.986 25.64 144.42 26.2 143.7 26.6C142.993 27 142.186 27.2 141.28 27.2C140.386 27.2 139.58 27 138.86 26.6C138.14 26.2 137.566 25.64 137.14 24.92C136.726 24.2 136.52 23.36 136.52 22.4C136.52 21.8267 136.6 21.2933 136.76 20.8C136.92 20.3067 137.133 19.8733 137.4 19.5L142.12 13ZM148.643 15.76V14L153.443 12.8V27H151.743V14.84L148.643 15.76ZM156.147 23V21.5H160.147V23H156.147ZM169.146 17.6C169.146 16.96 169.006 16.4 168.726 15.92C168.459 15.4267 168.086 15.04 167.606 14.76C167.139 14.48 166.606 14.34 166.006 14.34C165.406 14.34 164.866 14.48 164.386 14.76C163.919 15.04 163.546 15.4267 163.266 15.92C162.999 16.4 162.866 16.96 162.866 17.6C162.866 18.24 162.999 18.8067 163.266 19.3C163.546 19.7933 163.919 20.1867 164.386 20.48C164.866 20.76 165.406 20.9 166.006 20.9C166.606 20.9 167.139 20.76 167.606 20.48C168.086 20.1867 168.459 19.7933 168.726 19.3C169.006 18.8067 169.146 18.24 169.146 17.6ZM165.166 27H163.026L167.406 21.22L167.526 21.32C167.259 21.6533 166.946 21.8733 166.586 21.98C166.239 22.0867 165.839 22.14 165.386 22.14C164.813 22.14 164.273 22.0267 163.766 21.8C163.273 21.5733 162.833 21.2533 162.446 20.84C162.073 20.4267 161.779 19.9467 161.566 19.4C161.353 18.84 161.246 18.24 161.246 17.6C161.246 16.64 161.453 15.8 161.866 15.08C162.293 14.36 162.866 13.8 163.586 13.4C164.306 13 165.113 12.8 166.006 12.8C166.913 12.8 167.719 13 168.426 13.4C169.146 13.8 169.713 14.36 170.126 15.08C170.553 15.8 170.766 16.64 170.766 17.6C170.766 18.1733 170.686 18.7067 170.526 19.2C170.366 19.6933 170.153 20.1267 169.886 20.5L165.166 27ZM173.37 15.76V14L178.17 12.8V27H176.47V14.84L173.37 15.76Z" fill="#FAF6F2"/>
<path fill-rule="evenodd" clip-rule="evenodd" d="M5 13.3775L8.30288 11.0063C8.30288 11.0063 8.39654 10.9063 9.00967 11.505C9.6228 12.1037 11.7383 14.8625 11.7383 14.8625L11.0142 17.8828L16.633 23.4993L19.6524 22.7763L22.9923 25.2441L23.5089 26.2115L21.1375 29.5142L17.5132 29.4803L5.03389 17.0017L5 13.3775Z" stroke="#FAF6F2" stroke-width="1.5" stroke-linecap="round" stroke-linejoin="round"/>
<rect x="206.714" y="0.714286" width="38.5714" height="38.5714" fill="#050402"/>
<rect x="206.714" y="0.714286" width="38.5714" height="38.5714" stroke="#BB8C5F" stroke-width="1.42857"/>
<path d="M222.674 24.0688L222.334 29.1669C222.834 29.1669 223.054 28.9382 223.334 28.6669L225.736 26.331L230.734 30.0234C231.653 30.5309 232.317 30.2681 232.546 29.1695L235.827 13.709C236.163 12.3623 235.314 11.7515 234.434 12.1509L215.169 19.5794C213.854 20.1069 213.861 20.8405 214.929 21.1674L219.873 22.7105L231.318 15.4897C231.859 15.162 232.355 15.3382 231.948 15.6994L222.674 24.0686L222.674 24.0688Z" fill="#BB8C5F"/>
<rect x="258.714" y="0.714286" width="38.5714" height="38.5714" fill="#050402"/>
<rect x="258.714" y="0.714286" width="38.5714" height="38.5714" stroke="#BB8C5F" stroke-width="1.42857"/>
<path d="M283.318 16.9108C283.227 16.1761 283.002 15.5993 282.602 15.0883C282.083 14.4304 281.419 14.0364 280.436 13.8027C279.796 13.647 279.537 13.6648 279.306 13.8769C279.09 14.0757 279.048 14.474 279.213 14.732C279.328 14.9192 279.462 14.9863 279.834 15.0595C280.33 15.1509 280.672 15.2695 280.984 15.448C281.645 15.8307 281.952 16.4295 281.985 17.3989C282.001 17.854 282.04 17.994 282.199 18.1554C282.492 18.4505 283.016 18.3931 283.237 18.04C283.319 17.9069 283.331 17.8489 283.34 17.5399C283.346 17.3485 283.337 17.0637 283.318 16.9108Z" fill="#BB8C5F"/>
<path d="M285.908 17.7393C285.778 15.4886 284.9 13.6777 283.328 12.4037C282.442 11.6878 281.372 11.1955 280.199 10.9561C279.769 10.8705 278.978 10.8011 278.842 10.8408C278.714 10.8775 278.533 11.0166 278.452 11.1423C278.367 11.2787 278.347 11.5832 278.42 11.7593C278.538 12.0537 278.757 12.1577 279.369 12.2114C280.314 12.2942 281.288 12.6269 282.024 13.1193C282.864 13.6799 283.532 14.4468 283.964 15.3479C284.337 16.1222 284.567 17.238 284.56 18.2371C284.558 18.5985 284.614 18.8026 284.759 18.9518C284.978 19.1812 285.297 19.2314 285.578 19.079C285.89 18.9145 285.963 18.6258 285.908 17.7393Z" fill="#BB8C5F"/>
<path d="M288.773 26.4066C288.729 26.278 288.626 26.0795 288.553 25.9656C288.092 25.2674 285.614 23.3233 284.377 22.6875C283.67 22.3237 283.147 22.2025 282.759 22.3163C282.342 22.434 282.122 22.6287 281.423 23.4997C281.141 23.8488 280.852 24.1759 280.775 24.2273C280.585 24.3596 280.211 24.4663 279.948 24.4663C279.336 24.4625 278.227 24.0656 277.374 23.5438C276.712 23.1396 275.863 22.4156 275.211 21.699C274.443 20.8574 273.919 20.115 273.506 19.2771C272.971 18.2004 272.836 17.5425 273.059 17.0611C273.114 16.9398 273.187 16.8112 273.22 16.7707C273.253 16.7341 273.597 16.451 273.978 16.1423C274.724 15.547 274.845 15.411 274.984 15.0031C275.16 14.4849 275.112 13.9557 274.842 13.4229C274.633 13.0186 274.088 12.1366 273.692 11.567C273.169 10.8173 271.866 9.21502 271.606 8.99813C271.137 8.61597 270.537 8.54978 269.875 8.80708C269.175 9.07903 267.865 10.1374 267.305 10.8761C266.8 11.5449 266.606 12.019 266.577 12.6438C266.551 13.1582 266.595 13.3714 266.866 14.0292C268.985 19.1889 272.148 23.3086 276.492 26.5794C278.762 28.2882 281.115 29.5892 283.557 30.4786C284.981 30.9967 285.599 31.0224 286.328 30.5962C286.635 30.4124 287.396 29.6296 287.821 29.06C288.524 28.1118 288.784 27.6745 288.857 27.3254C288.908 27.0865 288.868 26.6713 288.773 26.4066Z" fill="#BB8C5F"/>
<path d="M288.544 18.2559C288.497 16.9828 288.283 15.9385 287.837 14.7742C287.397 13.6289 286.951 12.8815 286.11 11.8707C285.315 10.9229 284.697 10.3818 283.717 9.77941C282.35 8.94012 280.686 8.38471 278.822 8.15113C278.186 8.06949 278.042 8.07533 277.847 8.20581C277.469 8.453 277.474 9.06955 277.853 9.31304C277.979 9.3905 278.09 9.41871 278.599 9.48545C279.379 9.59083 279.881 9.69014 280.477 9.85309C282.813 10.4933 284.61 11.8018 285.811 13.7443C286.816 15.3634 287.233 16.9826 287.174 19.0506C287.153 19.7497 287.168 19.8728 287.275 20.0407C287.479 20.3538 288.017 20.4158 288.293 20.156C288.465 19.9976 288.498 19.8788 288.531 19.2804C288.548 18.9682 288.551 18.5074 288.544 18.2559Z" fill="#BB8C5F"/>
<rect x="310.5" y="0.5" width="39" height="39" fill="#050402"/>
<rect x="310.5" y="0.5" width="39" height="39" stroke="#BB8C5F"/>
<path fill-rule="evenodd" clip-rule="evenodd" d="M342.454 19.0443C342.452 25.6 337.119 30.9342 330.562 30.9368H330.557C328.567 30.9361 326.611 30.4368 324.874 29.4893L318.569 31.1431L320.257 24.9804C319.216 23.1768 318.668 21.131 318.669 19.0349C318.672 12.4778 324.007 7.14307 330.562 7.14307C333.743 7.14444 336.729 8.38296 338.975 10.6309C341.22 12.8788 342.456 15.8667 342.454 19.0443ZM321.424 28.3177L325.165 27.3363L325.526 27.5505C327.043 28.4511 328.783 28.9277 330.557 28.9284H330.561C336.009 28.9284 340.443 24.494 340.445 19.0436C340.446 16.4024 339.419 13.919 337.553 12.0506C335.687 10.1822 333.205 9.15269 330.565 9.15178C325.112 9.15178 320.678 13.5857 320.676 19.0356C320.675 20.9034 321.198 22.7223 322.187 24.2961L322.422 24.6701L321.424 28.3177Z" fill="#BB8C5F"/>
<path d="M336.319 22.6156C336.244 22.4917 336.046 22.4173 335.749 22.2685C335.452 22.1198 333.991 21.401 333.719 21.3017C333.446 21.2026 333.248 21.1531 333.05 21.4504C332.852 21.7479 332.282 22.4173 332.109 22.6156C331.936 22.8139 331.762 22.8388 331.465 22.69C331.168 22.5413 330.211 22.2275 329.076 21.2151C328.192 20.4271 327.596 19.454 327.423 19.1565C327.249 18.859 327.404 18.6983 327.553 18.5501C327.686 18.4169 327.85 18.2029 327.999 18.0295C328.147 17.856 328.197 17.732 328.296 17.5338C328.395 17.3354 328.345 17.1619 328.271 17.0132C328.197 16.8644 327.602 15.4018 327.355 14.8068C327.114 14.2273 326.869 14.3058 326.686 14.2967C326.513 14.288 326.315 14.2861 326.117 14.2861C325.919 14.2861 325.597 14.3605 325.324 14.658C325.052 14.9555 324.284 15.6744 324.284 17.137C324.284 18.5997 325.349 20.0127 325.498 20.211C325.646 20.4094 327.593 23.4108 330.574 24.6979C331.283 25.0041 331.836 25.1869 332.268 25.3239C332.98 25.5501 333.628 25.5182 334.139 25.4416C334.71 25.3563 335.898 24.7228 336.145 24.0287C336.393 23.3345 336.393 22.7395 336.319 22.6156Z" fill="#BB8C5F"/>
<path d="M2.499 64.71V63.911H4.42C4.81667 63.911 5.17367 63.843 5.491 63.707C5.80833 63.571 6.05767 63.3727 6.239 63.112C6.42033 62.8513 6.511 62.534 6.511 62.16C6.511 61.5933 6.31267 61.157 5.916 60.851C5.51933 60.5337 5.02067 60.375 4.42 60.375H2.805V69.725H4.59C5.1 69.725 5.54767 69.6343 5.933 69.453C6.32967 69.2717 6.63567 69.011 6.851 68.671C7.07767 68.331 7.191 67.9173 7.191 67.43C7.191 67.0673 7.12867 66.7443 7.004 66.461C6.87933 66.1777 6.698 65.9397 6.46 65.747C6.23333 65.5543 5.96133 65.4127 5.644 65.322C5.32667 65.22 4.97533 65.169 4.59 65.169H2.499V64.37H4.59C5.168 64.37 5.70067 64.4323 6.188 64.557C6.67533 64.6817 7.10033 64.8743 7.463 65.135C7.837 65.3843 8.126 65.7073 8.33 66.104C8.534 66.5007 8.636 66.971 8.636 67.515C8.636 68.297 8.45467 68.9487 8.092 69.47C7.74067 69.98 7.259 70.3653 6.647 70.626C6.04633 70.8753 5.36067 71 4.59 71H1.36V59.1H4.42C5.134 59.1 5.75167 59.2077 6.273 59.423C6.80567 59.6383 7.21933 59.967 7.514 60.409C7.80867 60.8397 7.956 61.395 7.956 62.075C7.956 62.6303 7.80867 63.1063 7.514 63.503C7.21933 63.8997 6.80567 64.2 6.273 64.404C5.75167 64.608 5.134 64.71 4.42 64.71H2.499ZM12.0295 74.74H10.6695V63.18H12.0295V74.74ZM18.5745 67.09C18.5745 67.9287 18.3988 68.654 18.0475 69.266C17.6962 69.878 17.2258 70.3483 16.6365 70.677C16.0585 71.0057 15.4125 71.17 14.6985 71.17C14.0525 71.17 13.4802 71.0057 12.9815 70.677C12.4942 70.3483 12.1088 69.878 11.8255 69.266C11.5535 68.654 11.4175 67.9287 11.4175 67.09C11.4175 66.24 11.5535 65.5147 11.8255 64.914C12.1088 64.302 12.4942 63.8317 12.9815 63.503C13.4802 63.1743 14.0525 63.01 14.6985 63.01C15.4125 63.01 16.0585 63.1743 16.6365 63.503C17.2258 63.8317 17.6962 64.302 18.0475 64.914C18.3988 65.5147 18.5745 66.24 18.5745 67.09ZM17.1975 67.09C17.1975 66.4893 17.0728 65.9793 16.8235 65.56C16.5855 65.1407 16.2625 64.8233 15.8545 64.608C15.4578 64.3927 15.0158 64.285 14.5285 64.285C14.1318 64.285 13.7408 64.3927 13.3555 64.608C12.9702 64.8233 12.6528 65.1407 12.4035 65.56C12.1542 65.9793 12.0295 66.4893 12.0295 67.09C12.0295 67.6907 12.1542 68.2007 12.4035 68.62C12.6528 69.0393 12.9702 69.3567 13.3555 69.572C13.7408 69.7873 14.1318 69.895 14.5285 69.895C15.0158 69.895 15.4578 69.7873 15.8545 69.572C16.2625 69.3567 16.5855 69.0393 16.8235 68.62C17.0728 68.2007 17.1975 67.6907 17.1975 67.09ZM20.6368 67.43V66.274H25.8558C25.8105 65.866 25.6971 65.509 25.5158 65.203C25.3458 64.8857 25.1021 64.642 24.7848 64.472C24.4788 64.2907 24.0991 64.2 23.6458 64.2C23.1925 64.2 22.7788 64.2963 22.4048 64.489C22.0308 64.6817 21.7305 64.9593 21.5038 65.322C21.2885 65.6733 21.1808 66.0927 21.1808 66.58L21.1468 67.09C21.1468 67.6907 21.2488 68.2007 21.4528 68.62C21.6568 69.0393 21.9458 69.3567 22.3198 69.572C22.6938 69.7873 23.1358 69.895 23.6458 69.895C24.0311 69.895 24.3711 69.8383 24.6658 69.725C24.9718 69.6003 25.2438 69.436 25.4818 69.232C25.7198 69.0167 25.9238 68.7673 26.0938 68.484L27.1988 69.181C26.9381 69.5777 26.6491 69.929 26.3318 70.235C26.0145 70.5297 25.6291 70.762 25.1758 70.932C24.7225 71.0907 24.1558 71.17 23.4758 71.17C22.7731 71.17 22.1385 70.9943 21.5718 70.643C21.0165 70.2917 20.5745 69.81 20.2458 69.198C19.9285 68.5747 19.7698 67.872 19.7698 67.09C19.7698 66.9427 19.7755 66.801 19.7868 66.665C19.7981 66.529 19.8151 66.393 19.8378 66.257C19.9511 65.611 20.1778 65.0443 20.5178 64.557C20.8578 64.0697 21.2941 63.69 21.8268 63.418C22.3708 63.146 22.9771 63.01 23.6458 63.01C24.3825 63.01 25.0285 63.1743 25.5838 63.503C26.1391 63.8317 26.5698 64.2963 26.8758 64.897C27.1818 65.4863 27.3348 66.1947 27.3348 67.022C27.3348 67.09 27.3348 67.158 27.3348 67.226C27.3348 67.294 27.3291 67.362 27.3178 67.43H20.6368ZM36.6278 71L35.3528 64.795L36.1178 62.585L38.1578 71H36.6278ZM32.5478 69.827L36.1178 62.585L36.2878 65.305L33.0578 71.527L32.5478 69.827ZM33.0578 71.527L29.8788 65.305L30.0488 62.585L33.5678 69.827L33.0578 71.527ZM28.0088 71L30.0488 62.585L30.8138 64.795L29.5388 71H28.0088ZM40.647 71H39.151L42.041 66.92H43.537L40.647 71ZM45.611 71H44.251V63.18H45.611V71ZM44.812 66.682V67.872H42.381C41.8483 67.872 41.361 67.7927 40.919 67.634C40.4883 67.4753 40.1483 67.226 39.899 66.886C39.6497 66.5347 39.525 66.0813 39.525 65.526C39.525 64.9593 39.6497 64.506 39.899 64.166C40.1483 63.826 40.4883 63.5767 40.919 63.418C41.361 63.2593 41.8483 63.18 42.381 63.18H44.812V64.37H42.381C42.0523 64.37 41.7747 64.4153 41.548 64.506C41.3327 64.5853 41.1683 64.71 41.055 64.88C40.9417 65.05 40.885 65.2653 40.885 65.526C40.885 65.7867 40.9417 66.002 41.055 66.172C41.1683 66.342 41.3327 66.4723 41.548 66.563C41.7747 66.6423 42.0523 66.682 42.381 66.682H44.812ZM54.1145 74.74H52.7545V63.18H54.1145V74.74ZM60.6595 67.09C60.6595 67.9287 60.4838 68.654 60.1325 69.266C59.7811 69.878 59.3108 70.3483 58.7215 70.677C58.1435 71.0057 57.4975 71.17 56.7835 71.17C56.1375 71.17 55.5651 71.0057 55.0665 70.677C54.5791 70.3483 54.1938 69.878 53.9105 69.266C53.6385 68.654 53.5025 67.9287 53.5025 67.09C53.5025 66.24 53.6385 65.5147 53.9105 64.914C54.1938 64.302 54.5791 63.8317 55.0665 63.503C55.5651 63.1743 56.1375 63.01 56.7835 63.01C57.4975 63.01 58.1435 63.1743 58.7215 63.503C59.3108 63.8317 59.7811 64.302 60.1325 64.914C60.4838 65.5147 60.6595 66.24 60.6595 67.09ZM59.2825 67.09C59.2825 66.4893 59.1578 65.9793 58.9085 65.56C58.6705 65.1407 58.3475 64.8233 57.9395 64.608C57.5428 64.3927 57.1008 64.285 56.6135 64.285C56.2168 64.285 55.8258 64.3927 55.4405 64.608C55.0551 64.8233 54.7378 65.1407 54.4885 65.56C54.2391 65.9793 54.1145 66.4893 54.1145 67.09C54.1145 67.6907 54.2391 68.2007 54.4885 68.62C54.7378 69.0393 55.0551 69.3567 55.4405 69.572C55.8258 69.7873 56.2168 69.895 56.6135 69.895C57.1008 69.895 57.5428 69.7873 57.9395 69.572C58.3475 69.3567 58.6705 69.0393 58.9085 68.62C59.1578 68.2007 59.2825 67.6907 59.2825 67.09ZM63.1468 68.705C63.1468 68.977 63.2204 69.2093 63.3678 69.402C63.5151 69.5833 63.7134 69.725 63.9628 69.827C64.2121 69.9177 64.4898 69.963 64.7958 69.963C65.2491 69.963 65.6514 69.895 66.0028 69.759C66.3541 69.623 66.6261 69.4077 66.8188 69.113C67.0228 68.8183 67.1248 68.4273 67.1248 67.94L67.3968 68.79C67.3968 69.2887 67.2608 69.7193 66.9888 70.082C66.7281 70.4333 66.3768 70.7053 65.9348 70.898C65.4928 71.0793 64.9998 71.17 64.4558 71.17C63.9684 71.17 63.5208 71.0793 63.1128 70.898C62.7048 70.7167 62.3761 70.4503 62.1268 70.099C61.8888 69.7363 61.7698 69.2887 61.7698 68.756C61.7698 68.2007 61.9058 67.7303 62.1778 67.345C62.4498 66.9597 62.8351 66.665 63.3338 66.461C63.8324 66.2457 64.4218 66.138 65.1018 66.138C65.6004 66.138 66.0254 66.206 66.3768 66.342C66.7394 66.4667 67.0284 66.614 67.2438 66.784C67.4591 66.9427 67.6064 67.073 67.6858 67.175V67.974C67.3004 67.702 66.9094 67.5037 66.5128 67.379C66.1161 67.243 65.6684 67.175 65.1698 67.175C64.7164 67.175 64.3368 67.2373 64.0308 67.362C63.7361 67.4867 63.5151 67.6623 63.3678 67.889C63.2204 68.1157 63.1468 68.3877 63.1468 68.705ZM63.1468 65.016L62.4838 63.979C62.7784 63.7637 63.1751 63.5483 63.6738 63.333C64.1724 63.1177 64.7731 63.01 65.4758 63.01C66.0764 63.01 66.5978 63.1063 67.0398 63.299C67.4931 63.4803 67.8444 63.7467 68.0938 64.098C68.3544 64.4493 68.4848 64.88 68.4848 65.39V71H67.1248V65.39C67.1248 64.9933 66.9548 64.6987 66.6148 64.506C66.2861 64.302 65.9064 64.2 65.4758 64.2C65.1018 64.2 64.7618 64.251 64.4558 64.353C64.1498 64.4437 63.8834 64.557 63.6568 64.693C63.4414 64.8177 63.2714 64.9253 63.1468 65.016ZM74.1517 64.285V63.01C74.9224 63.01 75.6081 63.1857 76.2087 63.537C76.8207 63.8883 77.3024 64.37 77.6537 64.982C78.0164 65.594 78.1977 66.2967 78.1977 67.09C78.1977 67.872 78.0164 68.5747 77.6537 69.198C77.3024 69.81 76.8207 70.2917 76.2087 70.643C75.6081 70.9943 74.9224 71.17 74.1517 71.17C73.3924 71.17 72.7067 70.983 72.0947 70.609C71.4827 70.2237 70.9954 69.6513 70.6327 68.892C70.2814 68.1327 70.1057 67.192 70.1057 66.07L71.4657 67.09C71.4657 67.634 71.5847 68.1157 71.8227 68.535C72.0607 68.9543 72.3781 69.2887 72.7747 69.538C73.1827 69.776 73.6417 69.895 74.1517 69.895C74.6617 69.895 75.1151 69.776 75.5117 69.538C75.9197 69.2887 76.2371 68.9543 76.4637 68.535C76.7017 68.1157 76.8207 67.634 76.8207 67.09C76.8207 66.546 76.7017 66.0643 76.4637 65.645C76.2371 65.2143 75.9197 64.88 75.5117 64.642C75.1151 64.404 74.6617 64.285 74.1517 64.285ZM70.8537 67.09C70.8537 66.4553 70.9331 65.8887 71.0917 65.39C71.2504 64.88 71.4771 64.4493 71.7717 64.098C72.0664 63.7467 72.4121 63.4803 72.8087 63.299C73.2167 63.1063 73.6644 63.01 74.1517 63.01V64.285C73.8571 64.285 73.5511 64.3473 73.2337 64.472C72.9164 64.5967 72.6217 64.778 72.3497 65.016C72.0891 65.254 71.8737 65.5487 71.7037 65.9C71.5451 66.24 71.4657 66.6367 71.4657 67.09H70.8537ZM70.1057 66.07C70.1057 65.0047 70.2077 64.064 70.4117 63.248C70.6157 62.432 70.9727 61.7407 71.4827 61.174C72.0041 60.596 72.7181 60.154 73.6247 59.848C74.3954 59.5873 74.9677 59.2757 75.3417 58.913C75.7271 58.539 75.9594 58.148 76.0387 57.74H77.3817C77.3251 58.2387 77.1437 58.6977 76.8377 59.117C76.5317 59.525 76.1294 59.882 75.6307 60.188C75.1434 60.494 74.5881 60.749 73.9647 60.953C73.2621 61.1797 72.7124 61.5197 72.3157 61.973C71.9304 62.4263 71.6641 62.942 71.5167 63.52C71.3694 64.0867 71.2957 64.6533 71.2957 65.22V66.971L70.1057 66.07ZM79.386 67.09C79.386 66.2967 79.5617 65.594 79.913 64.982C80.2757 64.37 80.763 63.8883 81.375 63.537C81.987 63.1857 82.6727 63.01 83.432 63.01C84.2027 63.01 84.8883 63.1857 85.489 63.537C86.101 63.8883 86.5827 64.37 86.934 64.982C87.2967 65.594 87.478 66.2967 87.478 67.09C87.478 67.872 87.2967 68.5747 86.934 69.198C86.5827 69.81 86.101 70.2917 85.489 70.643C84.8883 70.9943 84.2027 71.17 83.432 71.17C82.6727 71.17 81.987 70.9943 81.375 70.643C80.763 70.2917 80.2757 69.81 79.913 69.198C79.5617 68.5747 79.386 67.872 79.386 67.09ZM80.763 67.09C80.763 67.634 80.8763 68.1157 81.103 68.535C81.341 68.9543 81.6583 69.2887 82.055 69.538C82.463 69.776 82.922 69.895 83.432 69.895C83.942 69.895 84.3953 69.776 84.792 69.538C85.2 69.2887 85.5173 68.9543 85.744 68.535C85.982 68.1157 86.101 67.634 86.101 67.09C86.101 66.546 85.982 66.0643 85.744 65.645C85.5173 65.2143 85.2 64.88 84.792 64.642C84.3953 64.404 83.942 64.285 83.432 64.285C82.922 64.285 82.463 64.404 82.055 64.642C81.6583 64.88 81.341 65.2143 81.103 65.645C80.8763 66.0643 80.763 66.546 80.763 67.09ZM88.1563 63.18H92.7463V64.455H88.1563V63.18ZM89.7713 63.52H91.1313V71H89.7713V63.52ZM101.166 63.18H102.526V71H101.166V63.18ZM94.1109 63.18H95.4709V71H94.1109V63.18ZM94.9099 67.328V66.138H97.3409C98.1456 66.138 98.8199 66.3363 99.3639 66.733C99.9193 67.1183 100.197 67.7303 100.197 68.569C100.197 69.1243 100.072 69.5833 99.8229 69.946C99.5736 70.3087 99.2336 70.575 98.8029 70.745C98.3723 70.915 97.8849 71 97.3409 71H94.9099V69.81H97.3409C97.6696 69.81 97.9416 69.7647 98.1569 69.674C98.3836 69.572 98.5536 69.4303 98.6669 69.249C98.7803 69.0563 98.8369 68.8297 98.8369 68.569C98.8369 68.1723 98.7123 67.8663 98.4629 67.651C98.2136 67.4357 97.8396 67.328 97.3409 67.328H94.9099ZM105.408 70.32C105.408 70.0593 105.499 69.8383 105.68 69.657C105.873 69.4757 106.094 69.385 106.343 69.385C106.604 69.385 106.825 69.4757 107.006 69.657C107.187 69.8383 107.278 70.0593 107.278 70.32C107.278 70.5693 107.187 70.7903 107.006 70.983C106.825 71.1643 106.604 71.255 106.343 71.255C106.094 71.255 105.873 71.1643 105.68 70.983C105.499 70.7903 105.408 70.5693 105.408 70.32ZM105.408 63.86C105.408 63.5993 105.499 63.3783 105.68 63.197C105.873 63.0157 106.094 62.925 106.343 62.925C106.604 62.925 106.825 63.0157 107.006 63.197C107.187 63.3783 107.278 63.5993 107.278 63.86C107.278 64.1093 107.187 64.3303 107.006 64.523C106.825 64.7043 106.604 64.795 106.343 64.795C106.094 64.795 105.873 64.7043 105.68 64.523C105.499 64.3303 105.408 64.1093 105.408 63.86ZM115.873 67.09C115.873 67.634 115.987 68.1157 116.213 68.535C116.451 68.9543 116.769 69.2887 117.165 69.538C117.573 69.776 118.032 69.895 118.542 69.895C118.962 69.895 119.353 69.8327 119.715 69.708C120.089 69.572 120.412 69.3963 120.684 69.181C120.956 68.9543 121.149 68.7163 121.262 68.467V70.167C120.99 70.4843 120.599 70.7337 120.089 70.915C119.591 71.085 119.075 71.17 118.542 71.17C117.783 71.17 117.097 70.9943 116.485 70.643C115.873 70.2917 115.386 69.81 115.023 69.198C114.672 68.5747 114.496 67.872 114.496 67.09C114.496 66.2967 114.672 65.594 115.023 64.982C115.386 64.37 115.873 63.8883 116.485 63.537C117.097 63.1857 117.783 63.01 118.542 63.01C119.075 63.01 119.591 63.1007 120.089 63.282C120.599 63.452 120.99 63.6957 121.262 64.013V65.713C121.149 65.4523 120.956 65.2143 120.684 64.999C120.412 64.7837 120.089 64.6137 119.715 64.489C119.353 64.353 118.962 64.285 118.542 64.285C118.032 64.285 117.573 64.404 117.165 64.642C116.769 64.88 116.451 65.2143 116.213 65.645C115.987 66.0643 115.873 66.546 115.873 67.09ZM134.766 63.01C134.766 62.466 134.647 61.99 134.409 61.582C134.183 61.1627 133.865 60.834 133.457 60.596C133.061 60.358 132.607 60.239 132.097 60.239C131.587 60.239 131.128 60.358 130.72 60.596C130.324 60.834 130.006 61.1627 129.768 61.582C129.542 61.99 129.428 62.466 129.428 63.01C129.428 63.554 129.542 64.0357 129.768 64.455C130.006 64.8743 130.324 65.2087 130.72 65.458C131.128 65.696 131.587 65.815 132.097 65.815C132.607 65.815 133.061 65.696 133.457 65.458C133.865 65.2087 134.183 64.8743 134.409 64.455C134.647 64.0357 134.766 63.554 134.766 63.01ZM131.383 71H129.564L133.287 66.087L133.389 66.172C133.163 66.4553 132.896 66.6423 132.59 66.733C132.296 66.8237 131.956 66.869 131.57 66.869C131.083 66.869 130.624 66.7727 130.193 66.58C129.774 66.3873 129.4 66.1153 129.071 65.764C128.754 65.4127 128.505 65.0047 128.323 64.54C128.142 64.064 128.051 63.554 128.051 63.01C128.051 62.194 128.227 61.48 128.578 60.868C128.941 60.256 129.428 59.78 130.04 59.44C130.652 59.1 131.338 58.93 132.097 58.93C132.868 58.93 133.554 59.1 134.154 59.44C134.766 59.78 135.248 60.256 135.599 60.868C135.962 61.48 136.143 62.194 136.143 63.01C136.143 63.4973 136.075 63.9507 135.939 64.37C135.803 64.7893 135.622 65.1577 135.395 65.475L131.383 71ZM138.611 70.32C138.611 70.0593 138.702 69.8383 138.883 69.657C139.076 69.4757 139.297 69.385 139.546 69.385C139.807 69.385 140.028 69.4757 140.209 69.657C140.39 69.8383 140.481 70.0593 140.481 70.32C140.481 70.5693 140.39 70.7903 140.209 70.983C140.028 71.1643 139.807 71.255 139.546 71.255C139.297 71.255 139.076 71.1643 138.883 70.983C138.702 70.7903 138.611 70.5693 138.611 70.32ZM138.611 63.86C138.611 63.5993 138.702 63.3783 138.883 63.197C139.076 63.0157 139.297 62.925 139.546 62.925C139.807 62.925 140.028 63.0157 140.209 63.197C140.39 63.3783 140.481 63.5993 140.481 63.86C140.481 64.1093 140.39 64.3303 140.209 64.523C140.028 64.7043 139.807 64.795 139.546 64.795C139.297 64.795 139.076 64.7043 138.883 64.523C138.702 64.3303 138.611 64.1093 138.611 63.86ZM144.218 65.05C144.218 65.7413 144.286 66.3817 144.422 66.971C144.558 67.549 144.756 68.0533 145.017 68.484C145.277 68.9033 145.589 69.232 145.952 69.47C146.326 69.6967 146.739 69.81 147.193 69.81C147.657 69.81 148.071 69.6967 148.434 69.47C148.796 69.232 149.108 68.9033 149.369 68.484C149.629 68.0533 149.828 67.549 149.964 66.971C150.1 66.3817 150.168 65.7413 150.168 65.05C150.168 64.3587 150.1 63.724 149.964 63.146C149.828 62.5567 149.629 62.0523 149.369 61.633C149.108 61.2023 148.796 60.8737 148.434 60.647C148.071 60.409 147.657 60.29 147.193 60.29C146.739 60.29 146.326 60.409 145.952 60.647C145.589 60.8737 145.277 61.2023 145.017 61.633C144.756 62.0523 144.558 62.5567 144.422 63.146C144.286 63.724 144.218 64.3587 144.218 65.05ZM142.773 65.05C142.773 63.86 142.96 62.806 143.334 61.888C143.708 60.97 144.223 60.2503 144.881 59.729C145.549 59.1963 146.32 58.93 147.193 58.93C148.065 58.93 148.83 59.1963 149.488 59.729C150.156 60.2503 150.678 60.97 151.052 61.888C151.426 62.806 151.613 63.86 151.613 65.05C151.613 66.24 151.426 67.294 151.052 68.212C150.678 69.13 150.156 69.8553 149.488 70.388C148.83 70.9093 148.065 71.17 147.193 71.17C146.32 71.17 145.549 70.9093 144.881 70.388C144.223 69.8553 143.708 69.13 143.334 68.212C142.96 67.294 142.773 66.24 142.773 65.05ZM154.411 65.05C154.411 65.7413 154.479 66.3817 154.615 66.971C154.751 67.549 154.949 68.0533 155.21 68.484C155.471 68.9033 155.782 69.232 156.145 69.47C156.519 69.6967 156.933 69.81 157.386 69.81C157.851 69.81 158.264 69.6967 158.627 69.47C158.99 69.232 159.301 68.9033 159.562 68.484C159.823 68.0533 160.021 67.549 160.157 66.971C160.293 66.3817 160.361 65.7413 160.361 65.05C160.361 64.3587 160.293 63.724 160.157 63.146C160.021 62.5567 159.823 62.0523 159.562 61.633C159.301 61.2023 158.99 60.8737 158.627 60.647C158.264 60.409 157.851 60.29 157.386 60.29C156.933 60.29 156.519 60.409 156.145 60.647C155.782 60.8737 155.471 61.2023 155.21 61.633C154.949 62.0523 154.751 62.5567 154.615 63.146C154.479 63.724 154.411 64.3587 154.411 65.05ZM152.966 65.05C152.966 63.86 153.153 62.806 153.527 61.888C153.901 60.97 154.417 60.2503 155.074 59.729C155.743 59.1963 156.513 58.93 157.386 58.93C158.259 58.93 159.024 59.1963 159.681 59.729C160.35 60.2503 160.871 60.97 161.245 61.888C161.619 62.806 161.806 63.86 161.806 65.05C161.806 66.24 161.619 67.294 161.245 68.212C160.871 69.13 160.35 69.8553 159.681 70.388C159.024 70.9093 158.259 71.17 157.386 71.17C156.513 71.17 155.743 70.9093 155.074 70.388C154.417 69.8553 153.901 69.13 153.527 68.212C153.153 67.294 152.966 66.24 152.966 65.05ZM173.101 65.526L170.806 70.49H169.276L173.101 62.585L176.926 70.49H175.396L173.101 65.526ZM176.586 71H169.701V72.53H168.256V69.725H177.946V72.53H176.586V71ZM179.311 67.09C179.311 66.2967 179.486 65.594 179.838 64.982C180.2 64.37 180.688 63.8883 181.3 63.537C181.912 63.1857 182.597 63.01 183.357 63.01C184.127 63.01 184.813 63.1857 185.414 63.537C186.026 63.8883 186.507 64.37 186.859 64.982C187.221 65.594 187.403 66.2967 187.403 67.09C187.403 67.872 187.221 68.5747 186.859 69.198C186.507 69.81 186.026 70.2917 185.414 70.643C184.813 70.9943 184.127 71.17 183.357 71.17C182.597 71.17 181.912 70.9943 181.3 70.643C180.688 70.2917 180.2 69.81 179.838 69.198C179.486 68.5747 179.311 67.872 179.311 67.09ZM180.688 67.09C180.688 67.634 180.801 68.1157 181.028 68.535C181.266 68.9543 181.583 69.2887 181.98 69.538C182.388 69.776 182.847 69.895 183.357 69.895C183.867 69.895 184.32 69.776 184.717 69.538C185.125 69.2887 185.442 68.9543 185.669 68.535C185.907 68.1157 186.026 67.634 186.026 67.09C186.026 66.546 185.907 66.0643 185.669 65.645C185.442 65.2143 185.125 64.88 184.717 64.642C184.32 64.404 183.867 64.285 183.357 64.285C182.847 64.285 182.388 64.404 181.98 64.642C181.583 64.88 181.266 65.2143 181.028 65.645C180.801 66.0643 180.688 66.546 180.688 67.09ZM193.433 71L199.06 64.999C199.32 64.7157 199.541 64.438 199.723 64.166C199.915 63.8827 200.057 63.5993 200.148 63.316C200.25 63.0213 200.301 62.7153 200.301 62.398C200.301 62.1373 200.25 61.8823 200.148 61.633C200.046 61.3837 199.893 61.157 199.689 60.953C199.496 60.749 199.258 60.5847 198.975 60.46C198.691 60.3353 198.368 60.273 198.006 60.273C197.496 60.273 197.054 60.392 196.68 60.63C196.317 60.8567 196.039 61.191 195.847 61.633C195.654 62.0637 195.558 62.5793 195.558 63.18H194.113C194.113 62.33 194.266 61.5877 194.572 60.953C194.878 60.307 195.32 59.8083 195.898 59.457C196.487 59.0943 197.19 58.913 198.006 58.913C198.663 58.913 199.23 59.0263 199.706 59.253C200.182 59.4683 200.573 59.7517 200.879 60.103C201.185 60.443 201.411 60.8113 201.559 61.208C201.706 61.6047 201.78 61.9843 201.78 62.347C201.78 62.959 201.632 63.5653 201.338 64.166C201.043 64.7667 200.663 65.305 200.199 65.781L196.408 69.64H201.831V71H193.433ZM204.896 65.05C204.896 65.7413 204.964 66.3817 205.1 66.971C205.236 67.549 205.435 68.0533 205.695 68.484C205.956 68.9033 206.268 69.232 206.63 69.47C207.004 69.6967 207.418 69.81 207.871 69.81C208.336 69.81 208.75 69.6967 209.112 69.47C209.475 69.232 209.787 68.9033 210.047 68.484C210.308 68.0533 210.506 67.549 210.642 66.971C210.778 66.3817 210.846 65.7413 210.846 65.05C210.846 64.3587 210.778 63.724 210.642 63.146C210.506 62.5567 210.308 62.0523 210.047 61.633C209.787 61.2023 209.475 60.8737 209.112 60.647C208.75 60.409 208.336 60.29 207.871 60.29C207.418 60.29 207.004 60.409 206.63 60.647C206.268 60.8737 205.956 61.2023 205.695 61.633C205.435 62.0523 205.236 62.5567 205.1 63.146C204.964 63.724 204.896 64.3587 204.896 65.05ZM203.451 65.05C203.451 63.86 203.638 62.806 204.012 61.888C204.386 60.97 204.902 60.2503 205.559 59.729C206.228 59.1963 206.999 58.93 207.871 58.93C208.744 58.93 209.509 59.1963 210.166 59.729C210.835 60.2503 211.356 60.97 211.73 61.888C212.104 62.806 212.291 63.86 212.291 65.05C212.291 66.24 212.104 67.294 211.73 68.212C211.356 69.13 210.835 69.8553 210.166 70.388C209.509 70.9093 208.744 71.17 207.871 71.17C206.999 71.17 206.228 70.9093 205.559 70.388C204.902 69.8553 204.386 69.13 204.012 68.212C203.638 67.294 203.451 66.24 203.451 65.05ZM214.58 70.32C214.58 70.0593 214.671 69.8383 214.852 69.657C215.045 69.4757 215.266 69.385 215.515 69.385C215.776 69.385 215.997 69.4757 216.178 69.657C216.359 69.8383 216.45 70.0593 216.45 70.32C216.45 70.5693 216.359 70.7903 216.178 70.983C215.997 71.1643 215.776 71.255 215.515 71.255C215.266 71.255 215.045 71.1643 214.852 70.983C214.671 70.7903 214.58 70.5693 214.58 70.32ZM214.58 63.86C214.58 63.5993 214.671 63.3783 214.852 63.197C215.045 63.0157 215.266 62.925 215.515 62.925C215.776 62.925 215.997 63.0157 216.178 63.197C216.359 63.3783 216.45 63.5993 216.45 63.86C216.45 64.1093 216.359 64.3303 216.178 64.523C215.997 64.7043 215.776 64.795 215.515 64.795C215.266 64.795 215.045 64.7043 214.852 64.523C214.671 64.3303 214.58 64.1093 214.58 63.86ZM220.187 65.05C220.187 65.7413 220.255 66.3817 220.391 66.971C220.527 67.549 220.725 68.0533 220.986 68.484C221.246 68.9033 221.558 69.232 221.921 69.47C222.295 69.6967 222.708 69.81 223.162 69.81C223.626 69.81 224.04 69.6967 224.403 69.47C224.765 69.232 225.077 68.9033 225.338 68.484C225.598 68.0533 225.797 67.549 225.933 66.971C226.069 66.3817 226.137 65.7413 226.137 65.05C226.137 64.3587 226.069 63.724 225.933 63.146C225.797 62.5567 225.598 62.0523 225.338 61.633C225.077 61.2023 224.765 60.8737 224.403 60.647C224.04 60.409 223.626 60.29 223.162 60.29C222.708 60.29 222.295 60.409 221.921 60.647C221.558 60.8737 221.246 61.2023 220.986 61.633C220.725 62.0523 220.527 62.5567 220.391 63.146C220.255 63.724 220.187 64.3587 220.187 65.05ZM218.742 65.05C218.742 63.86 218.929 62.806 219.303 61.888C219.677 60.97 220.192 60.2503 220.85 59.729C221.518 59.1963 222.289 58.93 223.162 58.93C224.034 58.93 224.799 59.1963 225.457 59.729C226.125 60.2503 226.647 60.97 227.021 61.888C227.395 62.806 227.582 63.86 227.582 65.05C227.582 66.24 227.395 67.294 227.021 68.212C226.647 69.13 226.125 69.8553 225.457 70.388C224.799 70.9093 224.034 71.17 223.162 71.17C222.289 71.17 221.518 70.9093 220.85 70.388C220.192 69.8553 219.677 69.13 219.303 68.212C218.929 67.294 218.742 66.24 218.742 65.05ZM230.38 65.05C230.38 65.7413 230.448 66.3817 230.584 66.971C230.72 67.549 230.918 68.0533 231.179 68.484C231.44 68.9033 231.751 69.232 232.114 69.47C232.488 69.6967 232.902 69.81 233.355 69.81C233.82 69.81 234.233 69.6967 234.596 69.47C234.959 69.232 235.27 68.9033 235.531 68.484C235.792 68.0533 235.99 67.549 236.126 66.971C236.262 66.3817 236.33 65.7413 236.33 65.05C236.33 64.3587 236.262 63.724 236.126 63.146C235.99 62.5567 235.792 62.0523 235.531 61.633C235.27 61.2023 234.959 60.8737 234.596 60.647C234.233 60.409 233.82 60.29 233.355 60.29C232.902 60.29 232.488 60.409 232.114 60.647C231.751 60.8737 231.44 61.2023 231.179 61.633C230.918 62.0523 230.72 62.5567 230.584 63.146C230.448 63.724 230.38 64.3587 230.38 65.05ZM228.935 65.05C228.935 63.86 229.122 62.806 229.496 61.888C229.87 60.97 230.386 60.2503 231.043 59.729C231.712 59.1963 232.482 58.93 233.355 58.93C234.228 58.93 234.993 59.1963 235.65 59.729C236.319 60.2503 236.84 60.97 237.214 61.888C237.588 62.806 237.775 63.86 237.775 65.05C237.775 66.24 237.588 67.294 237.214 68.212C236.84 69.13 236.319 69.8553 235.65 70.388C234.993 70.9093 234.228 71.17 233.355 71.17C232.482 71.17 231.712 70.9093 231.043 70.388C230.386 69.8553 229.87 69.13 229.496 68.212C229.122 67.294 228.935 66.24 228.935 65.05ZM251.195 63.18V71H249.835V64.455H246.18V71H244.82V63.18H251.195ZM253.072 67.09C253.072 66.2967 253.247 65.594 253.599 64.982C253.961 64.37 254.449 63.8883 255.061 63.537C255.673 63.1857 256.358 63.01 257.118 63.01C257.888 63.01 258.574 63.1857 259.175 63.537C259.787 63.8883 260.268 64.37 260.62 64.982C260.982 65.594 261.164 66.2967 261.164 67.09C261.164 67.872 260.982 68.5747 260.62 69.198C260.268 69.81 259.787 70.2917 259.175 70.643C258.574 70.9943 257.888 71.17 257.118 71.17C256.358 71.17 255.673 70.9943 255.061 70.643C254.449 70.2917 253.961 69.81 253.599 69.198C253.247 68.5747 253.072 67.872 253.072 67.09ZM254.449 67.09C254.449 67.634 254.562 68.1157 254.789 68.535C255.027 68.9543 255.344 69.2887 255.741 69.538C256.149 69.776 256.608 69.895 257.118 69.895C257.628 69.895 258.081 69.776 258.478 69.538C258.886 69.2887 259.203 68.9543 259.43 68.535C259.668 68.1157 259.787 67.634 259.787 67.09C259.787 66.546 259.668 66.0643 259.43 65.645C259.203 65.2143 258.886 64.88 258.478 64.642C258.081 64.404 257.628 64.285 257.118 64.285C256.608 64.285 256.149 64.404 255.741 64.642C255.344 64.88 255.027 65.2143 254.789 65.645C254.562 66.0643 254.449 66.546 254.449 67.09ZM275.558 71L274.283 64.795L275.048 62.585L277.088 71H275.558ZM271.478 69.827L275.048 62.585L275.218 65.305L271.988 71.527L271.478 69.827ZM271.988 71.527L268.809 65.305L268.979 62.585L272.498 69.827L271.988 71.527ZM266.939 71L268.979 62.585L269.744 64.795L268.469 71H266.939ZM279.067 67.09C279.067 67.634 279.18 68.1157 279.407 68.535C279.645 68.9543 279.962 69.2887 280.359 69.538C280.767 69.776 281.226 69.895 281.736 69.895C282.155 69.895 282.546 69.8327 282.909 69.708C283.283 69.572 283.606 69.3963 283.878 69.181C284.15 68.9543 284.342 68.7163 284.456 68.467V70.167C284.184 70.4843 283.793 70.7337 283.283 70.915C282.784 71.085 282.268 71.17 281.736 71.17C280.976 71.17 280.291 70.9943 279.679 70.643C279.067 70.2917 278.579 69.81 278.217 69.198C277.865 68.5747 277.69 67.872 277.69 67.09C277.69 66.2967 277.865 65.594 278.217 64.982C278.579 64.37 279.067 63.8883 279.679 63.537C280.291 63.1857 280.976 63.01 281.736 63.01C282.268 63.01 282.784 63.1007 283.283 63.282C283.793 63.452 284.184 63.6957 284.456 64.013V65.713C284.342 65.4523 284.15 65.2143 283.878 64.999C283.606 64.7837 283.283 64.6137 282.909 64.489C282.546 64.353 282.155 64.285 281.736 64.285C281.226 64.285 280.767 64.404 280.359 64.642C279.962 64.88 279.645 65.2143 279.407 65.645C279.18 66.0643 279.067 66.546 279.067 67.09ZM286.488 63.18H287.848V71H286.488V63.18ZM290.738 63.18H292.438L289.038 66.41L292.778 71H291.078L287.338 66.41L290.738 63.18Z" fill="#636B78"/>
<path fill-rule="evenodd" clip-rule="evenodd" d="M22.5 120.234L14.7346 125.498L14.3137 125.784L13.8929 125.498L5.5 119.809V131.5H22.5V120.234ZM6.24266 118.5L14.3137 123.971L22.3848 118.5H6.24266ZM4 117H5.5H22.5H24V118.5V119.113L24.0483 119.185L24 119.217V131.5V133H22.5H5.5H4V131.5V118.5V117Z" fill="#FAF6F2"/>
<path d="M41.54 122.54L40.5 132H38.8L40.5 117.3L46.1 127.44L51.7 117.3L53.4 132H51.7L50.66 122.54L46.1 130.7L41.54 122.54ZM57.2914 122.8V132H55.6914V122.8H57.2914ZM60.0714 124.56C59.8581 124.4 59.6647 124.287 59.4914 124.22C59.3181 124.14 59.0981 124.1 58.8314 124.1C58.4314 124.1 58.1181 124.2 57.8914 124.4C57.6647 124.6 57.5047 124.873 57.4114 125.22C57.3314 125.567 57.2914 125.96 57.2914 126.4H56.5714C56.5714 125.667 56.6981 125.02 56.9514 124.46C57.2181 123.887 57.5581 123.433 57.9714 123.1C58.3847 122.767 58.8047 122.6 59.2314 122.6C59.5647 122.6 59.8714 122.647 60.1514 122.74C60.4447 122.82 60.7114 122.987 60.9514 123.24L60.0714 124.56ZM61.7555 131.2C61.7555 130.893 61.8621 130.633 62.0755 130.42C62.3021 130.207 62.5621 130.1 62.8555 130.1C63.1621 130.1 63.4221 130.207 63.6355 130.42C63.8488 130.633 63.9555 130.893 63.9555 131.2C63.9555 131.493 63.8488 131.753 63.6355 131.98C63.4221 132.193 63.1621 132.3 62.8555 132.3C62.5621 132.3 62.3021 132.193 62.0755 131.98C61.8621 131.753 61.7555 131.493 61.7555 131.2ZM67.4516 118H69.1516V132H67.4516V118ZM71.6516 132H68.3916V130.3H71.6516C72.4382 130.3 73.1582 130.18 73.8116 129.94C74.4649 129.687 75.0249 129.333 75.4916 128.88C75.9582 128.413 76.3182 127.853 76.5716 127.2C76.8249 126.547 76.9516 125.813 76.9516 125C76.9516 124.187 76.8249 123.453 76.5716 122.8C76.3182 122.147 75.9582 121.593 75.4916 121.14C75.0249 120.673 74.4649 120.32 73.8116 120.08C73.1582 119.827 72.4382 119.7 71.6516 119.7H68.3916V118H71.6516C73.0116 118 74.2182 118.293 75.2716 118.88C76.3249 119.467 77.1516 120.287 77.7516 121.34C78.3516 122.38 78.6516 123.6 78.6516 125C78.6516 126.4 78.3516 127.627 77.7516 128.68C77.1516 129.72 76.3249 130.533 75.2716 131.12C74.2182 131.707 73.0116 132 71.6516 132ZM82.5453 122.8V132H80.9453V122.8H82.5453ZM85.3253 124.56C85.112 124.4 84.9186 124.287 84.7453 124.22C84.572 124.14 84.352 124.1 84.0853 124.1C83.6853 124.1 83.372 124.2 83.1453 124.4C82.9186 124.6 82.7586 124.873 82.6653 125.22C82.5853 125.567 82.5453 125.96 82.5453 126.4H81.8253C81.8253 125.667 81.952 125.02 82.2053 124.46C82.472 123.887 82.812 123.433 83.2253 123.1C83.6386 122.767 84.0586 122.6 84.4853 122.6C84.8186 122.6 85.1253 122.647 85.4053 122.74C85.6986 122.82 85.9653 122.987 86.2053 123.24L85.3253 124.56ZM87.8008 119C87.8008 118.693 87.9074 118.433 88.1208 118.22C88.3474 118.007 88.6074 117.9 88.9008 117.9C89.2074 117.9 89.4674 118.007 89.6808 118.22C89.8941 118.433 90.0008 118.693 90.0008 119C90.0008 119.293 89.8941 119.553 89.6808 119.78C89.4674 119.993 89.2074 120.1 88.9008 120.1C88.6074 120.1 88.3474 119.993 88.1208 119.78C87.9074 119.553 87.8008 119.293 87.8008 119ZM88.1008 122.8H89.7008V132H88.1008V122.8ZM93.3761 129.18C93.5628 129.46 93.7761 129.72 94.0161 129.96C94.2561 130.2 94.5294 130.393 94.8361 130.54C95.1561 130.673 95.5028 130.74 95.8761 130.74C96.3294 130.74 96.6828 130.64 96.9361 130.44C97.2028 130.227 97.3361 129.94 97.3361 129.58C97.3361 129.26 97.2294 128.993 97.0161 128.78C96.8161 128.553 96.5561 128.367 96.2361 128.22C95.9161 128.06 95.5761 127.913 95.2161 127.78C94.8161 127.62 94.4094 127.433 93.9961 127.22C93.5961 126.993 93.2561 126.707 92.9761 126.36C92.7094 126 92.5761 125.553 92.5761 125.02C92.5761 124.473 92.7161 124.02 92.9961 123.66C93.2894 123.3 93.6628 123.033 94.1161 122.86C94.5828 122.687 95.0628 122.6 95.5561 122.6C96.0494 122.6 96.5094 122.68 96.9361 122.84C97.3761 123 97.7628 123.213 98.0961 123.48C98.4294 123.747 98.6894 124.053 98.8761 124.4L97.5961 125.22C97.3428 124.873 97.0228 124.587 96.6361 124.36C96.2628 124.133 95.8361 124.02 95.3561 124.02C95.0228 124.02 94.7361 124.093 94.4961 124.24C94.2561 124.387 94.1361 124.613 94.1361 124.92C94.1361 125.16 94.2294 125.373 94.4161 125.56C94.6028 125.747 94.8428 125.913 95.1361 126.06C95.4294 126.207 95.7361 126.347 96.0561 126.48C96.5894 126.693 97.0761 126.927 97.5161 127.18C97.9561 127.42 98.3028 127.713 98.5561 128.06C98.8228 128.407 98.9561 128.853 98.9561 129.4C98.9561 130.2 98.6628 130.867 98.0761 131.4C97.5028 131.933 96.7428 132.2 95.7961 132.2C95.1828 132.2 94.6294 132.093 94.1361 131.88C93.6428 131.653 93.2228 131.367 92.8761 131.02C92.5428 130.673 92.2894 130.32 92.1161 129.96L93.3761 129.18ZM100.963 116.4H102.563V132H100.963V116.4ZM105.963 122.8H107.963L103.963 126.6L108.363 132H106.363L101.963 126.6L105.963 122.8ZM113.138 132.2C112.285 132.2 111.525 132 110.858 131.6C110.205 131.187 109.691 130.62 109.318 129.9C108.958 129.18 108.778 128.347 108.778 127.4C108.778 126.44 108.965 125.6 109.338 124.88C109.725 124.16 110.258 123.6 110.938 123.2C111.631 122.8 112.431 122.6 113.338 122.6C114.245 122.6 115.018 122.793 115.658 123.18C116.311 123.553 116.811 124.093 117.158 124.8C117.505 125.507 117.678 126.347 117.678 127.32C117.678 127.413 117.671 127.513 117.658 127.62C117.658 127.713 117.658 127.773 117.658 127.8H109.798V126.44H116.398L115.758 127.36C115.798 127.293 115.838 127.193 115.878 127.06C115.918 126.913 115.938 126.793 115.938 126.7C115.938 126.153 115.825 125.68 115.598 125.28C115.385 124.88 115.085 124.567 114.698 124.34C114.311 124.113 113.858 124 113.338 124C112.725 124 112.198 124.133 111.758 124.4C111.331 124.653 110.998 125.027 110.758 125.52C110.531 126 110.411 126.593 110.398 127.3C110.398 128.02 110.511 128.633 110.738 129.14C110.965 129.647 111.298 130.033 111.738 130.3C112.178 130.567 112.711 130.7 113.338 130.7C113.965 130.7 114.518 130.567 114.998 130.3C115.478 130.02 115.885 129.6 116.218 129.04L117.518 129.86C117.038 130.633 116.431 131.22 115.698 131.62C114.978 132.007 114.125 132.2 113.138 132.2ZM119.871 116.4H121.471V132H119.871V116.4ZM124.48 116.4H126.08V132H124.48V116.4ZM132.91 125.6C132.91 126.16 133.043 126.6 133.31 126.92C133.59 127.24 134.003 127.4 134.55 127.4C134.883 127.4 135.23 127.313 135.59 127.14C135.95 126.967 136.257 126.68 136.51 126.28C136.763 125.867 136.89 125.307 136.89 124.6C136.89 124.227 136.81 123.907 136.65 123.64C136.503 123.373 136.297 123.167 136.03 123.02C135.777 122.873 135.483 122.8 135.15 122.8C134.79 122.8 134.437 122.913 134.09 123.14C133.743 123.367 133.457 123.693 133.23 124.12C133.017 124.533 132.91 125.027 132.91 125.6ZM131.39 125.66C131.39 124.727 131.583 123.947 131.97 123.32C132.37 122.693 132.857 122.22 133.43 121.9C134.017 121.567 134.59 121.4 135.15 121.4C135.723 121.4 136.19 121.56 136.55 121.88C136.91 122.187 137.177 122.587 137.35 123.08C137.523 123.56 137.61 124.067 137.61 124.6C137.61 125.52 137.45 126.293 137.13 126.92C136.823 127.547 136.41 128.02 135.89 128.34C135.37 128.647 134.79 128.8 134.15 128.8C133.67 128.8 133.217 128.68 132.79 128.44C132.377 128.187 132.037 127.827 131.77 127.36C131.517 126.88 131.39 126.313 131.39 125.66ZM128.29 125.6C128.29 124.507 128.47 123.487 128.83 122.54C129.203 121.593 129.73 120.767 130.41 120.06C131.09 119.353 131.89 118.8 132.81 118.4C133.743 118 134.77 117.8 135.89 117.8C136.957 117.8 137.89 117.98 138.69 118.34C139.49 118.7 140.157 119.187 140.69 119.8C141.223 120.413 141.623 121.1 141.89 121.86C142.157 122.62 142.29 123.4 142.29 124.2C142.29 125.08 142.177 125.827 141.95 126.44C141.723 127.053 141.423 127.547 141.05 127.92C140.69 128.293 140.303 128.567 139.89 128.74C139.477 128.913 139.083 129 138.71 129C138.31 129 137.957 128.893 137.65 128.68C137.357 128.453 137.143 128.16 137.01 127.8C136.877 127.44 136.843 127.04 136.91 126.6H136.77L137.49 121.6H138.99L138.17 126.22C138.157 126.287 138.143 126.373 138.13 126.48C138.13 126.587 138.13 126.68 138.13 126.76C138.13 126.92 138.15 127.073 138.19 127.22C138.23 127.353 138.303 127.467 138.41 127.56C138.53 127.64 138.697 127.68 138.91 127.68C139.11 127.68 139.363 127.567 139.67 127.34C139.99 127.113 140.27 126.747 140.51 126.24C140.763 125.72 140.89 125.04 140.89 124.2C140.89 123.533 140.783 122.9 140.57 122.3C140.37 121.687 140.063 121.14 139.65 120.66C139.237 120.18 138.717 119.8 138.09 119.52C137.463 119.24 136.73 119.1 135.89 119.1C134.957 119.1 134.103 119.267 133.33 119.6C132.57 119.933 131.917 120.393 131.37 120.98C130.837 121.567 130.423 122.253 130.13 123.04C129.837 123.827 129.69 124.68 129.69 125.6C129.69 126.68 129.903 127.62 130.33 128.42C130.757 129.207 131.357 129.82 132.13 130.26C132.917 130.687 133.837 130.9 134.89 130.9C135.597 130.9 136.277 130.833 136.93 130.7C137.597 130.553 138.257 130.273 138.91 129.86L139.61 131C139.01 131.36 138.357 131.653 137.65 131.88C136.957 132.093 136.037 132.2 134.89 132.2C133.463 132.2 132.257 131.927 131.27 131.38C130.297 130.833 129.557 130.067 129.05 129.08C128.543 128.08 128.29 126.92 128.29 125.6ZM157.08 126.2V132H155.48V126.4C155.48 125.613 155.334 125.033 155.04 124.66C154.76 124.287 154.32 124.1 153.72 124.1C153.28 124.1 152.9 124.193 152.58 124.38C152.26 124.553 152.014 124.813 151.84 125.16C151.667 125.507 151.58 125.92 151.58 126.4V132H149.98V126.4C149.98 125.613 149.834 125.033 149.54 124.66C149.26 124.287 148.82 124.1 148.22 124.1C147.78 124.1 147.4 124.193 147.08 124.38C146.76 124.553 146.514 124.813 146.34 125.16C146.167 125.507 146.08 125.92 146.08 126.4V132H144.48V122.8H146.08V124.14C146.36 123.62 146.707 123.233 147.12 122.98C147.547 122.727 148.047 122.6 148.62 122.6C149.26 122.6 149.807 122.753 150.26 123.06C150.727 123.353 151.067 123.773 151.28 124.32C151.6 123.747 152 123.32 152.48 123.04C152.96 122.747 153.507 122.6 154.12 122.6C154.747 122.6 155.28 122.74 155.72 123.02C156.16 123.3 156.494 123.713 156.72 124.26C156.96 124.793 157.08 125.44 157.08 126.2ZM160.806 129.16C160.806 129.507 160.886 129.807 161.046 130.06C161.219 130.313 161.453 130.507 161.746 130.64C162.053 130.76 162.399 130.82 162.786 130.82C163.279 130.82 163.719 130.72 164.106 130.52C164.506 130.32 164.819 130.04 165.046 129.68C165.286 129.307 165.406 128.88 165.406 128.4L165.726 129.6C165.726 130.187 165.546 130.673 165.186 131.06C164.839 131.447 164.406 131.733 163.886 131.92C163.379 132.107 162.873 132.2 162.366 132.2C161.806 132.2 161.279 132.087 160.786 131.86C160.306 131.62 159.919 131.28 159.626 130.84C159.333 130.4 159.186 129.867 159.186 129.24C159.186 128.347 159.499 127.633 160.126 127.1C160.766 126.553 161.653 126.28 162.786 126.28C163.453 126.28 164.006 126.36 164.446 126.52C164.899 126.667 165.259 126.84 165.526 127.04C165.793 127.227 165.973 127.38 166.066 127.5V128.44C165.599 128.12 165.119 127.893 164.626 127.76C164.133 127.613 163.606 127.54 163.046 127.54C162.526 127.54 162.099 127.607 161.766 127.74C161.446 127.873 161.206 128.06 161.046 128.3C160.886 128.54 160.806 128.827 160.806 129.16ZM160.566 124.92L159.786 123.74C160.133 123.487 160.606 123.233 161.206 122.98C161.819 122.727 162.553 122.6 163.406 122.6C164.126 122.6 164.753 122.713 165.286 122.94C165.833 123.153 166.253 123.467 166.546 123.88C166.853 124.293 167.006 124.8 167.006 125.4V132H165.406V125.62C165.406 125.3 165.353 125.04 165.246 124.84C165.139 124.627 164.986 124.46 164.786 124.34C164.599 124.22 164.379 124.133 164.126 124.08C163.873 124.027 163.606 124 163.326 124C162.873 124 162.459 124.053 162.086 124.16C161.726 124.267 161.419 124.393 161.166 124.54C160.913 124.687 160.713 124.813 160.566 124.92ZM169.715 119C169.715 118.693 169.822 118.433 170.035 118.22C170.262 118.007 170.522 117.9 170.815 117.9C171.122 117.9 171.382 118.007 171.595 118.22C171.808 118.433 171.915 118.693 171.915 119C171.915 119.293 171.808 119.553 171.595 119.78C171.382 119.993 171.122 120.1 170.815 120.1C170.522 120.1 170.262 119.993 170.035 119.78C169.822 119.553 169.715 119.293 169.715 119ZM170.015 122.8H171.615V132H170.015V122.8ZM174.91 116.4H176.51V132H174.91V116.4ZM179.92 131.2C179.92 130.893 180.026 130.633 180.24 130.42C180.466 130.207 180.726 130.1 181.02 130.1C181.326 130.1 181.586 130.207 181.8 130.42C182.013 130.633 182.12 130.893 182.12 131.2C182.12 131.493 182.013 131.753 181.8 131.98C181.586 132.193 181.326 132.3 181.02 132.3C180.726 132.3 180.466 132.193 180.24 131.98C180.026 131.753 179.92 131.493 179.92 131.2ZM187.116 122.8V132H185.516V122.8H187.116ZM189.896 124.56C189.682 124.4 189.489 124.287 189.316 124.22C189.142 124.14 188.922 124.1 188.656 124.1C188.256 124.1 187.942 124.2 187.716 124.4C187.489 124.6 187.329 124.873 187.236 125.22C187.156 125.567 187.116 125.96 187.116 126.4H186.396C186.396 125.667 186.522 125.02 186.776 124.46C187.042 123.887 187.382 123.433 187.796 123.1C188.209 122.767 188.629 122.6 189.056 122.6C189.389 122.6 189.696 122.647 189.976 122.74C190.269 122.82 190.536 122.987 190.776 123.24L189.896 124.56ZM193.971 128.4C193.971 129.133 194.138 129.7 194.471 130.1C194.804 130.5 195.291 130.7 195.931 130.7C196.398 130.7 196.804 130.607 197.151 130.42C197.511 130.22 197.784 129.947 197.971 129.6C198.171 129.253 198.271 128.853 198.271 128.4V122.8H199.871V132H198.271V130.56C197.964 131.107 197.584 131.52 197.131 131.8C196.678 132.067 196.144 132.2 195.531 132.2C194.571 132.2 193.804 131.873 193.231 131.22C192.658 130.567 192.371 129.693 192.371 128.6V122.8H193.971V128.4Z" fill="#FAF6F2"/>
</svg>
