<svg width="28" height="28" viewBox="0 0 28 28" fill="none" xmlns="http://www.w3.org/2000/svg">
<path d="M6.74374 13.7907C6.31539 13.3622 5.9836 12.8471 5.77061 12.28C5.55762 11.7128 5.46837 11.1066 5.50882 10.5021C5.54928 9.89759 5.71851 9.30872 6.00518 8.77497C6.29184 8.24122 6.68931 7.77493 7.17093 7.40737C7.65255 7.0398 8.2072 6.77946 8.79767 6.6438C9.38814 6.50813 10.0008 6.50028 10.5946 6.62077C11.1883 6.74126 11.7494 6.98731 12.2403 7.34241C12.7312 7.69751 13.1405 8.15347 13.4407 8.67969H14.5587C14.859 8.15347 15.2683 7.69751 15.7592 7.34241C16.25 6.98731 16.8112 6.74126 17.4049 6.62077C17.9987 6.50028 18.6113 6.50813 19.2018 6.6438C19.7923 6.77946 20.3469 7.0398 20.8286 7.40737C21.3102 7.77493 21.7076 8.24122 21.9943 8.77497C22.281 9.30872 22.4502 9.89759 22.4907 10.5021C22.5311 11.1066 22.4419 11.7128 22.2289 12.28C22.0159 12.8471 21.6841 13.3622 21.2557 13.7907L13.9997 21.0487L6.74374 13.7917V13.7907ZM21.9617 14.5007C22.4739 13.9885 22.8745 13.3759 23.1384 12.7014C23.4023 12.0269 23.5238 11.3051 23.4952 10.5813C23.4666 9.85758 23.2886 9.14759 22.9723 8.496C22.656 7.8444 22.2083 7.2653 21.6574 6.79511C21.1064 6.32492 20.4642 5.97382 19.771 5.76389C19.0778 5.55395 18.3486 5.48973 17.6294 5.57525C16.9101 5.66078 16.2164 5.8942 15.5917 6.26085C14.9671 6.62749 14.4251 7.11942 13.9997 7.70569C13.5744 7.11942 13.0324 6.62749 12.4078 6.26085C11.7831 5.8942 11.0893 5.66078 10.3701 5.57525C9.65088 5.48973 8.92173 5.55395 8.22852 5.76389C7.53531 5.97382 6.89304 6.32492 6.3421 6.79511C5.79116 7.2653 5.34347 7.8444 5.02719 8.496C4.71091 9.14759 4.53287 9.85758 4.50429 10.5813C4.4757 11.3051 4.59718 12.0269 4.86108 12.7014C5.12498 13.3759 5.5256 13.9885 6.03774 14.5007L13.9997 22.4617L21.9617 14.5017V14.5007Z" fill="#FAF6F2"/>
<path fill-rule="evenodd" clip-rule="evenodd" d="M7.04374 13.6674L13.9997 20.6244L21.0436 13.5786L21.2557 13.7907L13.9997 21.0487L6.74374 13.7917V13.7907C6.31539 13.3622 5.9836 12.8471 5.77061 12.28C5.55762 11.7128 5.46837 11.1066 5.50882 10.5021C5.54928 9.89759 5.71851 9.30872 6.00518 8.77497C6.29184 8.24122 6.68931 7.77493 7.17093 7.40737C7.65255 7.0398 8.2072 6.77946 8.79767 6.6438C9.38814 6.50813 10.0008 6.50028 10.5946 6.62077C11.1883 6.74126 11.7494 6.98731 12.2403 7.34241C12.7312 7.69751 13.1405 8.15347 13.4407 8.67969H14.5587C14.859 8.15347 15.2683 7.69751 15.7592 7.34241C16.25 6.98731 16.8112 6.74126 17.4049 6.62077C17.9987 6.50028 18.6113 6.50813 19.2018 6.6438C19.7923 6.77946 20.3469 7.0398 20.8286 7.40737C21.3102 7.77493 21.7076 8.24122 21.9943 8.77497C22.281 9.30872 22.4502 9.89759 22.4907 10.5021C22.5311 11.1066 22.4419 11.7128 22.2289 12.28C22.0159 12.8471 21.6841 13.3622 21.2557 13.7907L21.0436 13.5786C21.4417 13.1804 21.7501 12.7016 21.948 12.1745C22.146 11.6473 22.2289 11.084 22.1913 10.5221C22.1537 9.96029 21.9964 9.41299 21.73 8.91692C21.4636 8.42084 21.0942 7.98747 20.6465 7.64585C20.1989 7.30423 19.6834 7.06227 19.1346 6.93618C18.5858 6.81009 18.0164 6.8028 17.4646 6.91478C16.9127 7.02677 16.3912 7.25544 15.935 7.58548C15.4788 7.91552 15.0984 8.33928 14.8193 8.82836L14.733 8.97969H13.2665L13.1802 8.82836C12.9011 8.33928 12.5207 7.91552 12.0645 7.58548C11.6083 7.25544 11.0867 7.02677 10.5349 6.91478C9.98305 6.8028 9.41364 6.81009 8.86485 6.93618C8.31606 7.06227 7.80056 7.30423 7.35294 7.64585C6.90531 7.98747 6.5359 8.42084 6.26947 8.91692C6.00304 9.41299 5.84575 9.96029 5.80815 10.5221C5.77055 11.084 5.85351 11.6473 6.05146 12.1745C6.24942 12.7016 6.55779 13.1804 6.9559 13.5786L7.04374 13.6674ZM6.03774 14.5007C5.5256 13.9885 5.12498 13.3759 4.86108 12.7014C4.59718 12.0269 4.4757 11.3051 4.50429 10.5813C4.53287 9.85758 4.71091 9.14759 5.02719 8.496C5.34347 7.8444 5.79116 7.2653 6.3421 6.79511C6.89304 6.32492 7.53531 5.97382 8.22852 5.76389C8.92173 5.55395 9.65088 5.48973 10.3701 5.57525C11.0893 5.66078 11.7831 5.8942 12.4078 6.26085C12.9426 6.57477 13.4168 6.98054 13.8091 7.45873C13.875 7.53904 13.9386 7.62139 13.9997 7.70569C14.0609 7.62139 14.1245 7.53904 14.1904 7.45873C14.5826 6.98054 15.0569 6.57477 15.5917 6.26085C16.2164 5.8942 16.9101 5.66078 17.6294 5.57525C18.3486 5.48973 19.0778 5.55395 19.771 5.76389C20.4642 5.97382 21.1064 6.32492 21.6574 6.79511C22.2083 7.2653 22.656 7.8444 22.9723 8.496C23.2886 9.14759 23.4666 9.85758 23.4952 10.5813C23.5238 11.3051 23.4023 12.0269 23.1384 12.7014C22.8745 13.3759 22.4739 13.9885 21.9617 14.5007V14.5017L13.9997 22.4617L6.03774 14.5007ZM22.2617 14.6229V14.626L13.9997 22.8859L5.82562 14.7128C5.28422 14.1714 4.86069 13.5238 4.5817 12.8107C4.30272 12.0976 4.1743 11.3346 4.20452 10.5695C4.23474 9.80439 4.42295 9.05382 4.7573 8.36499C5.09166 7.67616 5.56493 7.06397 6.14735 6.56691C6.72977 6.06986 7.40875 5.69869 8.14157 5.47676C8.87439 5.25483 9.64521 5.18694 10.4055 5.27735C11.1659 5.36777 11.8993 5.61453 12.5596 6.00212C13.1064 6.32303 13.5932 6.73474 13.9997 7.21867C14.4063 6.73474 14.8931 6.32303 15.4399 6.00212C16.1002 5.61453 16.8336 5.36777 17.5939 5.27735C18.3543 5.18694 19.1251 5.25483 19.8579 5.47676C20.5907 5.69869 21.2697 6.06986 21.8521 6.56691C22.4346 7.06397 22.9078 7.67616 23.2422 8.36499C23.5765 9.05382 23.7647 9.80439 23.795 10.5695C23.8252 11.3346 23.6968 12.0976 23.4178 12.8107C23.1541 13.4847 22.7612 14.1003 22.2617 14.6229Z" fill="#FAF6F2"/>
</svg>
